<?xml version="1.0" encoding="UTF-8"?>
<svg width="240px" height="227px" viewBox="0 0 240 227" version="1.1" xmlns="http://www.w3.org/2000/svg" xmlns:xlink="http://www.w3.org/1999/xlink">
    <title>GEOMETRIC_HUMANS_EXPORT-09</title>
    <g id="Mentor" stroke="none" stroke-width="1" fill="none" fill-rule="evenodd">
        <g id="Add-refugee-Copy" transform="translate(-600.000000, -346.000000)">
            <g id="Group-12" transform="translate(432.000000, 296.000000)">
                <g id="GEOMETRIC_HUMANS_EXPORT-09" transform="translate(168.000000, 50.000000)">
                    <path d="M80.0824847,221.708089 C80.0824847,218.78553 77.7183116,216.416178 74.8006692,216.416178 C65.7089806,216.416178 47.20712,216.416178 38.1154314,216.416178 C35.197789,216.416178 32.8324231,218.78553 32.8324231,221.708089 C32.8324231,224.630648 35.197789,227 38.1154314,227 C47.20712,227 65.7089806,227 74.8006692,227 C77.7183116,227 80.0824847,224.630648 80.0824847,221.708089" id="Fill-4" fill="#E1E1E1"></path>
                    <path d="M93.2357319,92.5694554 C100.232825,80.4299626 115.73116,76.2707525 127.850231,83.2796368 C139.969302,90.2885212 144.122707,105.811778 137.125614,117.951271 L93.2357319,92.5694554" id="Fill-63" fill="#FF0000"></path>
                    <polyline id="Fill-64" fill="#0591E2" points="45.3606316 182.349129 46.5319828 178.839908 48.9092768 173.784574 59.0041287 178.547174 56.6268346 183.602508 52.9541359 189.499004 51.3235484 192.966406 39.5694813 189.274375 35.894397 188.440383 37.5583835 181.080218 41.2334678 181.913016 45.3606316 182.349129"></polyline>
                    <path d="M32.8825216,191.220757 L49.1168278,196.460095 C49.6034992,196.619008 50.127148,196.35017 50.2846005,195.861484 C50.442053,195.372798 50.1736681,194.848267 49.6858039,194.689354 L33.4514977,189.450016 C32.9648263,189.291103 32.4399847,189.561135 32.283725,190.048627 C32.1250797,190.539703 32.3946575,191.063039 32.8825216,191.220757" id="Fill-65" fill="#313131"></path>
                    <path d="M46.5963951,178.391846 C47.3252093,178.880532 48.1685344,179.173266 48.9009271,179.647614 C49.330343,179.9284 49.906476,179.805332 50.1855963,179.371608 C50.4647166,178.941469 50.3406631,178.36556 49.9112472,178.085969 C49.1860115,177.615205 48.3498434,177.327251 47.6269933,176.844539 C47.2011559,176.560169 46.6238301,176.676067 46.3387456,177.102622 C46.054854,177.529177 46.1693649,178.106281 46.5963951,178.391846" id="Fill-66" fill="#313131"></path>
                    <path d="M44.9705789,182.081487 C45.6683797,182.701605 46.3268174,183.370711 47.0377393,183.975296 C47.4301777,184.305069 48.017046,184.254886 48.3462649,183.864176 C48.6778694,183.471077 48.6289637,182.883219 48.2365253,182.553446 C47.535146,181.958419 46.8874437,181.298872 46.1991855,180.688313 C45.8162896,180.347786 45.2282284,180.383631 44.889467,180.769562 C44.5495127,181.154297 44.5852974,181.74335 44.9705789,182.081487" id="Fill-67" fill="#313131"></path>
                    <polyline id="Fill-68" fill="#0591E2" points="17.2112274 154.386477 20.2887079 152.340925 25.2675465 149.819829 30.3024478 159.794286 25.3236092 162.316577 18.8084159 164.702656 15.3933668 166.432773 8.39269497 156.279091 6.00705115 153.357727 11.8387575 148.579594 14.2244013 151.500958 17.2112274 154.386477"></polyline>
                    <path d="M1.91686481,153.697059 L11.499996,167.829531 C11.7862733,168.254892 12.3647919,168.366011 12.7882437,168.076862 C13.2116955,167.788907 13.3226279,167.209414 13.0363507,166.784053 L3.45321943,152.651581 C3.16574935,152.226221 2.58723073,152.116296 2.16377895,152.404251 C1.73794152,152.6934 1.62939473,153.271699 1.91686481,153.697059" id="Fill-69" fill="#313131"></path>
                    <path d="M20.6036129,152.026684 C20.8791547,152.860676 21.3646333,153.611031 21.6509105,154.43666 C21.8167128,154.921762 22.3463257,155.179845 22.832997,155.010179 C23.3160899,154.842903 23.5725466,154.312397 23.4067444,153.827296 C23.1240456,153.008836 22.6409527,152.26804 22.3666037,151.441216 C22.2055727,150.953725 21.6795382,150.689667 21.1928669,150.850969 C20.7061956,151.012271 20.4425819,151.539192 20.6036129,152.026684" id="Fill-70" fill="#313131"></path>
                    <path d="M17.0561605,153.933636 C17.226734,154.852461 17.334088,155.785625 17.5237467,156.700866 C17.6311007,157.202696 18.1237361,157.5253 18.6247213,157.420155 C19.1268993,157.313815 19.4489613,156.82035 19.3416073,156.31852 C19.1543343,155.417617 19.0493659,154.497596 18.881178,153.593108 C18.7881379,153.087695 18.3026594,152.754336 17.7980957,152.848728 C17.2947249,152.94312 16.9607348,153.430611 17.0561605,153.933636" id="Fill-71" fill="#313131"></path>
                    <path d="M111.410759,62.6641256 C108.933268,68.0156585 110.70938,74.6206896 116.496952,75.0317118 C117.492958,75.1022068 118.559341,74.8082782 119.495706,74.4354906 C121.652328,73.5740168 123.016917,71.9550194 124.039165,69.9847415 C125.007736,68.1148295 125.663788,65.9233882 126.447472,63.816541 C126.553634,63.5313346 126.409302,63.2137483 126.124098,63.1072887 C125.840326,63.0010682 125.523035,63.1462403 125.416874,63.4312077 C124.648697,65.4953994 124.01173,67.6440657 123.062244,69.4769379 C122.164049,71.2082495 120.984348,72.6528013 119.087761,73.4103248 C118.301692,73.7245656 117.410654,73.9910131 116.574366,73.9312715 C111.563441,73.5764064 110.264457,67.7611592 112.409151,63.1279593 C112.536783,62.8518337 112.417501,62.5239718 112.14184,62.3961247 C111.866417,62.2679193 111.538391,62.3881194 111.410759,62.6641256" id="Fill-72" fill="#313131"></path>
                    <path d="M125.957223,64.1834739 C127.336125,64.1297064 128.858165,63.8072213 129.854172,62.7814581 C131.47641,61.1091712 131.389334,57.8972239 129.018004,56.9237943 C128.105495,56.549334 127.133345,56.7074103 126.185052,56.7695415 C125.882075,56.7893757 125.65186,57.0518803 125.672138,57.3556066 C125.691223,57.658855 125.953644,57.8892186 126.256621,57.8696233 C127.040305,57.818365 127.846652,57.6344804 128.600516,57.9437029 C130.241839,58.6177076 130.188162,60.8553889 129.064524,62.0128226 C128.265333,62.8368983 127.022413,63.0387054 125.915474,63.0815998 C125.611304,63.0934287 125.375125,63.3500786 125.387054,63.6540438 C125.398863,63.9580091 125.654246,64.1950638 125.957223,64.1834739" id="Fill-73" fill="#313131"></path>
                    <polygon id="Fill-74" fill="#313131" points="99.6411855 167.465108 134.124474 167.465108 134.124474 161.47661 99.6411855 161.47661"></polygon>
                    <path d="M115.937518,167.467497 L115.937518,199.680167 C115.937518,200.202309 116.359777,200.625279 116.881041,200.625279 C117.401111,200.625279 117.824563,200.202309 117.824563,199.680167 L117.824563,167.467497 C117.824563,166.94655 117.401111,166.52358 116.881041,166.52358 C116.359777,166.52358 115.937518,166.94655 115.937518,167.467497" id="Fill-75" fill="#313131"></path>
                    <path d="M116.03533,164.057447 L98.7930892,199.264366 C98.5640674,199.73274 98.7584973,200.29909 99.2248907,200.528498 C99.6924769,200.7591 100.257874,200.565538 100.488089,200.097163 L117.729137,164.890245 C117.958159,164.421871 117.764922,163.85552 117.297335,163.624918 C116.829749,163.39551 116.264352,163.589073 116.03533,164.057447" id="Fill-76" fill="#313131"></path>
                    <path d="M116.03533,164.890245 L133.276378,200.097163 C133.5054,200.565538 134.07199,200.7591 134.539576,200.528498 C135.00597,200.29909 135.199207,199.73274 134.970185,199.264366 L117.729137,164.057447 C117.500115,163.589073 116.934718,163.39551 116.465939,163.624918 C115.998352,163.85552 115.806308,164.421871 116.03533,164.890245" id="Fill-77" fill="#313131"></path>
                    <path d="M139.016237,128.073887 L88.1388039,128.073887 C78.9671962,128.073887 70.5172458,133.057531 66.06802,141.090387 L50.8177919,168.626484 L63.3615071,175.225541 L83.6514078,142.508652 C83.7301341,142.380805 83.8589588,142.289998 84.0068688,142.258932 C84.1535858,142.229062 84.3074599,142.260127 84.4315134,142.346155 C84.4315134,142.346155 103.174324,155.313666 124.68806,151.895252 C131.01598,150.889204 134.838975,148.331068 137.07313,145.213752 C141.702472,138.75449 139.563742,129.985618 139.016237,128.073887 Z M84.2883747,143.570858 L64.0271017,176.242343 C63.8744205,176.488479 63.5595155,176.574506 63.3030588,176.43949 L49.8074717,169.339799 C49.6762613,169.270499 49.5784499,169.15221 49.5355083,169.010025 C49.4937596,168.86784 49.5092663,168.714902 49.5820284,168.584665 C49.5820284,168.584665 58.4136818,152.638438 65.1054127,140.556297 C69.7490684,132.172161 78.5676008,126.972252 88.1388039,126.972252 L139.425375,126.972252 C139.662746,126.972252 139.873876,127.123996 139.947831,127.349819 C139.947831,127.349819 143.488126,138.154685 137.967746,145.856571 C135.598802,149.161477 131.56945,151.917954 124.861019,152.983744 C104.958786,156.146464 87.3813619,145.563838 84.2883747,143.570858 L84.2883747,143.570858 Z" id="Fill-78" fill="#313131"></path>
                    <path d="M34.1469129,156.451147 L55.3874926,145.357132 C55.6570704,145.216142 55.9898677,145.321287 56.1306207,145.591319 C56.2701808,145.861351 56.1652125,146.194709 55.8968276,146.334504 L34.1218636,157.70811 C33.9858819,157.7798 33.8260438,157.790553 33.6793267,157.736786 C33.5326096,157.684213 33.4180987,157.573094 33.3584576,157.429714 L28.6754387,146.056108 C28.5680848,145.790856 28.6790172,145.486174 28.9330883,145.355937 L64.6843466,127.02602 C64.9539244,126.886224 65.2855289,126.993759 65.425089,127.264986 C65.5634564,127.536213 65.4561024,127.868376 65.1853318,128.006977 L29.8849602,146.106291 L34.1469129,156.451147" id="Fill-79" fill="#313131"></path>
                    <path d="M128.173486,54.9161182 C128.173486,57.3961114 120.34261,63.3454187 111.911745,62.899388 C104.314662,62.4972075 103.133768,50.2026256 111.911745,48.0179948 C122.279753,45.4371577 128.173486,54.9161182 128.173486,54.9161182" id="Fill-80" fill="#313131"></path>
                    <path d="M125.488324,57.3523806 C126.263778,57.3254968 127.025991,57.4299252 127.781047,57.6032953 C129.728925,58.0511183 131.238919,59.980055 129.693021,61.8683675 C128.421593,63.4215295 123.453489,64.0058024 125.260615,67.0741309 C126.501149,69.1806196 129.550002,68.9428481 131.55275,68.4720843 C136.313183,67.3549164 139.718809,63.311605 140.435695,58.6933405 C141.154967,54.0619328 137.164977,49.289535 132.671617,48.2932841 C128.802103,47.4357532 123.838652,48.7893783 122.834415,53.0291201 L125.488324,57.3523806" id="Fill-81" fill="#313131"></path>
                    <path d="M135.900586,62.2986265 C140.403489,62.5495412 144.235906,63.4321635 147.677317,66.4540131 C151.576652,69.8760118 152.137278,76.2874802 147.18814,79.1264009 C143.607408,81.1791222 138.551036,80.2328153 135.337574,77.895724 C134.217514,77.0808486 133.067634,76.2026471 132.263672,75.0926482 C132.001251,74.7318089 131.787736,74.3458782 131.59092,73.9479992 C131.496688,73.7592157 131.284365,73.1713584 131.323728,73.3768695 C131.617163,74.8883319 131.753144,76.4941861 130.715389,77.7953581 C128.46692,80.611577 124.01173,78.741665 123.002603,75.9051339 C121.776382,72.4592385 123.525059,69.6310713 124.948095,66.6690828 L135.900586,62.2986265" id="Fill-82" fill="#313131"></path>
                    <path d="M114.56458,83.7922197 C114.089837,84.2223593 113.581695,84.6166538 112.967392,84.8317236 C112.381716,85.0372347 111.686301,85.0957814 111.111361,84.9559861 C110.656896,84.8460615 110.274,84.615459 110.0247,84.2689577 C109.763472,83.9021443 109.632262,83.3943407 109.790907,82.7085072 C110.030664,81.6725878 110.611569,81.1647843 111.242571,80.4012866 C111.437001,80.1659047 111.783993,80.1324494 112.017906,80.327207 C112.251699,80.5207698 112.285098,80.8684659 112.090668,81.102653 C111.576562,81.7263553 111.058877,82.112286 110.863254,82.958227 C110.795263,83.249766 110.808384,83.4696151 110.919317,83.6261381 C111.052913,83.8125319 111.295056,83.8866115 111.552705,83.9176771 C111.895045,83.9583014 112.275555,83.9069236 112.604774,83.7910249 C113.188064,83.5867086 113.636565,83.1589588 114.077909,82.7407676 C114.223433,82.6021671 114.436949,82.3058488 114.6445,82.1110912 C114.800759,81.962932 114.964057,81.8601765 115.107314,81.813578 C115.331565,81.7394984 115.49021,81.7932659 115.598757,81.8530075 C115.724003,81.9223077 115.820622,82.0298426 115.871913,82.1839759 C115.899229,82.2700038 115.917241,82.3990457 115.883842,82.5579583 C115.855214,82.6905847 115.73951,82.9176027 115.724003,83.0418653 C115.683447,83.3584957 115.645277,83.68349 115.675098,84.003705 C115.70969,84.3896357 115.855214,84.8520357 116.106899,85.2200439 C116.310872,85.5175571 116.584028,85.7613028 116.951417,85.7660822 C117.752993,85.7756408 118.225232,85.2726166 118.503278,84.60829 C119.007723,83.4038994 118.929116,81.6988741 118.700094,80.7525672 C118.628525,80.4574437 118.809834,80.1587357 119.104461,80.0870458 C119.400281,80.0153559 119.697293,80.1969704 119.770055,80.4932887 C120.039633,81.6080669 120.112395,83.6153846 119.51837,85.034845 C119.063905,86.1209473 118.248015,86.8844449 116.937103,86.8689121 C116.335921,86.8605482 115.83255,86.5833472 115.444883,86.1555974 C114.936741,85.596416 114.638535,84.7707871 114.577702,84.1028761 C114.569352,83.9989257 114.56458,83.8961701 114.56458,83.7922197" id="Fill-83" fill="#313131"></path>
                    <path d="M112.270784,104.685052 C113.253669,102.793633 118.385189,93.2672372 124.849091,87.5643043 C129.82793,83.1709071 135.579717,81.05247 140.891353,85.9106568 C142.307113,87.2046598 142.798675,88.9754008 142.572039,91.0639671 C142.359717,93.019907 141.505656,95.2685808 140.228144,97.6415171 C134.411944,108.438019 119.79749,121.932451 119.79749,121.932451 C119.665087,122.055519 119.4802,122.104507 119.303662,122.065077 L79.3095361,112.989134 C79.0137162,112.922223 78.827636,112.6271 78.894434,112.330781 C78.9612321,112.033268 79.2558591,111.846874 79.5528717,111.91498 L119.263106,120.925208 C121.064267,119.2393 133.919309,107.031702 139.25838,97.1169858 C140.459551,94.8886242 141.27902,92.7821355 141.478221,90.9444839 C141.663109,89.2406535 141.305262,87.7817637 140.149418,86.7243374 C135.317296,82.3058488 130.104664,84.3956099 125.57552,88.391128 C118.516399,94.6209819 113.084288,105.51068 113.084288,105.51068 C112.984091,105.711412 112.771769,105.830895 112.548592,105.812973 L79.3870695,103.150887 C79.0840927,103.126991 78.8586494,102.860543 78.8825058,102.557056 C78.9063623,102.254763 79.1723615,102.027745 79.4753383,102.051642 L112.270784,104.685052" id="Fill-84" fill="#313131"></path>
                    <polygon id="Fill-85" fill="#313131" points="19.7710232 121.527403 79.4300111 121.527403 79.4300111 117.954855 19.7710232 117.954855"></polygon>
                    <polyline id="Fill-86" fill="#313131" points="10.7687962 92.5730399 50.0639284 92.5730399 59.0709267 117.954855 19.772216 117.954855 10.7687962 92.5730399"></polyline>
                    <path d="M79.9620097,102.181879 C78.9958239,98.2544659 76.5910949,94.7858687 72.8110423,93.0533623 C71.7553949,92.5706502 69.7574182,92.188304 68.3904443,92.6196383 C67.8560601,92.7881096 67.4111375,93.0748693 67.1093536,93.4930605 C66.8075696,93.908862 66.6393817,94.4620692 66.7061798,95.1909167 C66.8266548,96.5028422 67.6127244,97.1611946 68.6254302,97.5411512 C69.4580199,97.8530023 70.4623759,97.9533682 71.2484456,98.168438 C73.0281359,98.6559294 74.4642935,99.8495666 74.9783997,101.658542 C75.0607044,101.951276 75.3660668,102.120942 75.6571154,102.038499 C75.9493567,101.95486 76.1199303,101.650178 76.0364327,101.357444 C75.4149725,99.1649278 73.6949233,97.6952845 71.5383013,97.1050375 C70.7820522,96.8983316 69.8134808,96.809914 69.0119045,96.5088164 C68.3892515,96.2758241 67.876338,95.8958676 67.8023831,95.089356 C67.7654056,94.684308 67.8322036,94.371262 68.0003915,94.1394646 C68.2675836,93.7690667 68.7506765,93.617323 69.2814823,93.5563866 C70.3454794,93.4345137 71.620606,93.7212734 72.3529987,94.0570212 C75.820532,95.6449529 78.0069745,98.8423232 78.8932412,102.444742 C78.9660034,102.74106 79.2642088,102.92148 79.5588358,102.848595 C79.8534629,102.77571 80.0347718,102.477002 79.9620097,102.181879" id="Fill-87" fill="#313131"></path>
                    <path d="M75.5807748,100.942838 C72.672675,99.3883614 68.8639946,98.3082333 65.8366126,100.057467 C64.9730095,100.556907 64.1547337,101.137595 63.7181609,102.070759 C62.9714543,103.674224 63.5571299,105.796245 65.5491425,105.965911 C66.0787554,106.011315 66.6179109,105.830895 67.1415597,105.538162 C67.7654056,105.188076 68.3677807,104.669519 68.9033577,104.394707 C69.8814717,103.892878 71.0146525,103.9108 72.0869994,103.825967 C72.3887833,103.800876 72.6154195,103.535623 72.5915631,103.232136 C72.5677066,102.928649 72.3017073,102.70163 71.9987306,102.726722 C70.7844379,102.823503 69.5093112,102.84501 68.4011797,103.41375 C67.937172,103.651522 67.4230657,104.061349 66.8886815,104.403071 C66.4795436,104.665934 66.0632487,104.903706 65.6421826,104.867861 C64.4815669,104.76869 64.27998,103.471102 64.71536,102.537938 C65.0529286,101.815065 65.7185232,101.398069 66.3865035,101.012138 C69.0858595,99.4528823 72.4698952,100.529426 75.0630901,101.915431 C75.3302822,102.058811 75.6642723,101.95725 75.8074109,101.689608 C75.9505496,101.420771 75.8491597,101.086218 75.5807748,100.942838" id="Fill-88" fill="#313131"></path>
                    <path d="M71.8949551,102.762567 C69.8063239,103.743524 68.352274,104.545256 67.702186,106.995857 C67.5423479,107.594467 67.528034,108.43085 67.8035759,109.06889 C68.024248,109.576694 68.4119151,109.970988 69.0119045,110.113173 C69.4747194,110.221903 69.9208348,110.083302 70.3311655,109.801322 C70.7558101,109.508588 71.138706,109.042604 71.4571894,108.783325 C72.2909719,108.104661 73.3215701,107.807147 74.3497826,107.557428 C74.6444096,107.485738 74.8269113,107.18703 74.7541492,106.891906 C74.6825799,106.596783 74.3855672,106.415168 74.0897474,106.486858 C72.9040824,106.774813 71.7255744,107.145211 70.7641599,107.927825 C70.5041247,108.138116 70.2035336,108.490591 69.8707363,108.767792 C69.678692,108.926705 69.4890333,109.092787 69.2647828,109.040214 C68.961806,108.968524 68.8198602,108.71283 68.747098,108.435629 C68.6480938,108.052088 68.6779144,107.611195 68.7649904,107.279032 C69.3148813,105.209583 70.5983576,104.589465 72.3625413,103.761446 C72.6368903,103.632405 72.7549797,103.303826 72.6273477,103.02782 C72.4973301,102.753008 72.1693041,102.63472 71.8949551,102.762567" id="Fill-89" fill="#313131"></path>
                    <path d="M105.664936,79.2160133 C103.9926,76.9613654 101.76083,75.9553169 99.5588808,76.0592673 C97.3700526,76.1644125 95.1930334,77.3735824 93.6198205,79.6222562 C90.4850846,84.0992916 90.6127165,90.2789625 90.3574526,95.5553405 C90.3431387,95.8588278 90.5769318,96.1181063 90.8811014,96.1324443 C91.1840782,96.1479771 91.4429205,95.9125952 91.4572344,95.6091079 C91.7029557,90.5298772 91.5037545,84.565276 94.5204011,80.2555171 C95.874254,78.322279 97.729092,77.2505147 99.611365,77.1609023 C101.480517,77.0712899 103.360404,77.9590501 104.781055,79.8731709 C104.962245,80.1181114 105.30709,80.1682944 105.550425,79.9866799 C105.794954,79.8050655 105.845052,79.459759 105.664936,79.2160133" id="Fill-90" fill="#313131"></path>
                    <path d="M61.4637275,88.8798143 C63.476018,86.499709 65.4000398,83.818506 67.0497125,81.1611998 C67.2095506,80.9019212 67.1308244,80.5625889 66.8731748,80.4012866 C66.6143325,80.2411791 66.275571,80.3200381 66.1145401,80.5781218 C64.4934951,83.1912193 62.6016796,85.8282134 60.6239808,88.1664996 C60.4271652,88.398297 60.4557929,88.7471879 60.6872004,88.9431404 C60.9198007,89.1402876 61.2669118,89.1116117 61.4637275,88.8798143" id="Fill-91" fill="#313131"></path>
                    <path d="M53.1163597,85.3693979 C54.3127601,79.3928484 55.9314194,73.4951579 56.7628163,67.4445288 C56.8033722,67.1434311 56.5934356,66.8650353 56.2916516,66.8232161 C55.9910605,66.781397 55.713133,66.9928823 55.6713842,67.2939799 C54.8435658,73.3219072 53.2296778,79.1980908 52.0380487,85.1531334 C51.9784076,85.4518413 52.1716448,85.7421855 52.4686574,85.8019271 C52.7668629,85.8616687 53.0567186,85.6681059 53.1163597,85.3693979" id="Fill-92" fill="#313131"></path>
                    <path d="M43.5821342,83.8985598 C42.7877148,80.505237 41.7428028,77.1250574 40.6382497,73.8201521 C40.5404383,73.5321976 40.2267261,73.3756747 39.9404489,73.472456 C39.651786,73.5704323 39.4943335,73.8822834 39.5921449,74.1714327 C40.6871554,77.4416878 41.7249105,80.789607 42.5085945,84.1494745 C42.5789709,84.4457928 42.8747908,84.629797 43.1706106,84.5604967 C43.4676233,84.4911964 43.6525107,84.1948781 43.5821342,83.8985598" id="Fill-93" fill="#313131"></path>
                    <path d="M31.1744007,103.572663 C31.4022296,103.48544 31.6563007,103.597754 31.8972507,103.781759 C32.2360122,104.042232 32.5389889,104.467592 32.7358045,104.987344 C32.9314273,105.505901 32.9862971,106.025653 32.9051852,106.447429 C32.8455442,106.743747 32.7298404,106.995857 32.5020114,107.083079 C32.2741825,107.169107 32.0236899,107.056793 31.7827398,106.872789 C31.4427856,106.611121 31.1410016,106.18576 30.944186,105.667203 C30.7473704,105.147451 30.6925006,104.6277 30.7748053,104.207119 C30.8332536,103.909606 30.9465717,103.658691 31.1744007,103.572663 Z M30.7843479,102.541523 C30.3322684,102.713579 29.9839644,103.09473 29.7966913,103.625236 C29.5664767,104.272834 29.5772121,105.166569 29.9147807,106.057913 C30.2511565,106.948063 30.8332536,107.625533 31.4344358,107.957696 C31.9270713,108.230118 32.4387919,108.28508 32.8920642,108.113024 C33.3477222,107.940969 33.6948334,107.559817 33.8832992,107.028117 C34.1135138,106.380518 34.1027784,105.486784 33.7652098,104.596634 C33.4288341,103.705289 32.8455442,103.029014 32.2455547,102.696851 C31.7529193,102.423235 31.2400059,102.368272 30.7843479,102.541523 L30.7843479,102.541523 Z" id="Fill-94" fill="#313131"></path>
                    <path d="M196.488782,181.173415 C198.140721,176.08821 203.713704,163.21509 218.932919,157.827593 C227.806321,154.688769 234.835502,157.299477 238.058626,161.847008 C241.31503,166.445916 240.749513,173.070064 234.254717,177.956927 C229.779249,181.321574 225.083109,181.662101 220.044629,182.338376 C212.693268,183.321723 204.607009,185.094853 195.338902,198.786433 C195.194451,198.999113 194.902329,199.05527 194.688814,198.910695 C194.474106,198.764926 194.419236,198.473387 194.563568,198.259512 C204.065587,184.215457 212.380629,182.41843 219.922961,181.408797 C224.799217,180.754029 229.358183,180.466074 233.691705,177.206573 C239.678478,172.704446 240.28801,166.625141 237.290329,162.389461 C234.260681,158.103599 227.604735,155.75217 219.247824,158.712963 C200.578969,165.319189 196.810844,183.485415 196.810844,183.485415 C196.767903,183.689731 196.593751,183.842669 196.386199,183.858202 C196.176263,183.87254 195.983145,183.748278 195.911456,183.549936 C195.911456,183.549936 193.054648,175.865971 203.131607,158.209939 C205.607906,153.870309 208.061421,146.545989 207.998321,140.392605 C207.96015,136.805719 207.073884,133.615518 204.750386,131.720514 C203.210334,130.463551 201.04405,129.789666 198.108634,129.922292 C188.381172,130.363185 182.992002,136.943125 178.855296,144.897121 C170.620053,160.72506 169.742136,180.446957 183.181661,198.457854 C183.335535,198.66456 183.293786,198.958489 183.086235,199.113817 C182.879877,199.26795 182.586443,199.226131 182.431376,199.01823 C168.743745,180.67278 169.637168,160.585265 178.025092,144.463397 C182.320444,136.205914 187.968455,129.443165 198.065693,128.985544 C201.287385,128.839775 203.651678,129.614026 205.341906,130.992862 C207.036906,132.376477 208.059155,134.377821 208.555369,136.725666 C210.002262,143.536208 207.001122,153.317102 203.943919,158.674729 C197.091157,170.681595 196.330137,177.917498 196.488782,181.173415" id="Fill-113" fill="#313131"></path>
                    <path d="M188.96804,152.904885 C184.155004,166.885614 182.988424,183.258397 185.989444,197.828178 C186.042048,198.080287 186.290155,198.245174 186.544226,198.192601 C186.797104,198.140029 186.959328,197.891504 186.908037,197.638199 C183.93791,183.229721 185.092562,167.037358 189.853114,153.210762 C189.936611,152.967016 189.807787,152.699374 189.563258,152.615736 C189.319922,152.529708 189.05273,152.66114 188.96804,152.904885" id="Fill-114" fill="#313131"></path>
                    <path d="M173.231141,195.088428 C170.066584,188.239651 164.814589,179.507819 158.170571,176.378554 C155.856497,175.288867 153.029509,175.429857 150.728555,176.425152 C148.694794,177.305744 147.063013,178.856636 146.608548,180.85081 C146.306764,182.172294 146.533401,183.681367 147.478115,185.303949 C148.562391,187.164302 150.204787,188.159597 152.043045,188.705635 C153.953946,189.271986 156.072397,189.359209 158.031011,189.395053 C164.691728,189.518121 170.571148,193.157579 173.231141,195.088428 Z M174.1186,196.969093 C174.283209,197.113668 174.526545,197.125616 174.703083,196.99538 C174.87962,196.866338 174.944033,196.630956 174.856838,196.430224 C171.737728,189.225387 165.964469,179.014353 158.570166,175.531418 C156.015142,174.327028 152.895913,174.466823 150.358661,175.564873 C148.038742,176.568532 146.212531,178.369144 145.69604,180.641715 C145.348809,182.165125 145.580336,183.90719 146.669382,185.777102 C149.057412,189.875376 153.860906,190.256527 158.014311,190.332997 C166.769624,190.493104 174.1186,196.969093 174.1186,196.969093 L174.1186,196.969093 Z" id="Fill-115" fill="#313131"></path>
                    <polyline id="Fill-121" fill="#FF0000" points="169.910324 202.486827 203.581301 202.486827 195.159979 219.614744 178.325683 219.614744 169.910324 202.486827"></polyline>
                    <path d="M86.9364394,34.5431578 C86.9364394,24.4591344 73.4193815,16.2727432 56.7640091,16.2727432 C40.1146009,16.2727432 26.5987358,24.4591344 26.5987358,34.5431578 C26.5987358,44.6264642 40.1146009,52.812736 56.7640091,52.812736 C60.1838295,52.812736 63.5738294,52.4612164 66.7944486,51.7731127 L82.2832411,61.9480628 L75.9243075,48.6566325 C82.8963516,45.1863625 86.9364394,40.0080802 86.9364394,34.5431578" id="Fill-122" fill="#0591E2"></path>
                    <text id="􀆅" font-family="SFPro-BoldItalic, SF Pro" font-size="17" font-style="italic" font-weight="bold" fill="#FFFFFF">
                        <tspan x="47" y="40">􀆅</tspan>
                    </text>
                    <polyline id="Fill-128" fill="#FF0000" points="18.2859599 55.6832003 24.748669 77.910062 0 69.8413617 18.2859599 55.6832003"></polyline>
                    <polyline id="Fill-130" fill="#FF0000" points="202.151108 97.9414199 190.171597 99.6834849 196.150021 87.4101709 202.151108 97.9414199"></polyline>
                    <path d="M171.175908,56.5890024 C170.207337,54.4200239 169.001394,51.7207791 169.371169,48.9577301 C169.589455,47.3243948 170.559219,45.7308474 171.898758,44.7991175 C172.94367,44.073257 174.136492,43.8146954 175.257745,44.0709869 C176.63784,44.3866615 177.698259,45.3611664 178.722893,46.3036499 C179.889472,47.3752947 180.896214,48.3022453 182.160605,48.151338 C183.636126,47.9767731 184.546249,46.288595 184.765728,44.7940992 C184.876542,44.0443421 184.883818,43.2847874 184.890855,42.480546 C184.900398,41.4734222 184.91006,40.4321261 185.140275,39.4038537 C185.587583,37.3994036 187.23487,35.3898157 189.399842,35.6182676 C191.23798,35.810755 192.179117,37.3518493 193.088047,38.8420437 C193.796583,40.0033009 194.464563,41.1000372 195.501126,41.5453511 C196.330137,41.9021279 197.124556,41.680845 197.645819,41.4325589 C198.678803,40.9395712 199.549563,39.9053247 199.863275,38.797596 C200.458493,36.6940943 199.748764,34.3110019 199.177403,32.3962837 L200.341597,32.0478707 C200.958286,34.1139741 201.724078,36.685372 201.032241,39.1298787 C200.621791,40.5815996 199.523202,41.8851613 198.168275,42.5319238 C197.111435,43.035665 195.993642,43.0827413 195.021611,42.6644307 C193.629588,42.0659393 192.826819,40.7498319 192.050292,39.4769774 C191.226052,38.1259809 190.513937,36.9592275 189.273522,36.8293493 C187.877682,36.6838187 186.657544,38.1901434 186.325939,39.6699428 C186.124353,40.5723994 186.116003,41.5046073 186.10646,42.4917775 C186.099303,43.301754 186.090954,44.1393313 185.969286,44.9718902 C185.673466,46.9755039 184.425774,49.1095933 182.302551,49.3607469 C180.485883,49.5750998 179.171394,48.3682 177.901038,47.2006102 C176.950359,46.3270686 176.053357,45.5019176 174.986974,45.2581719 C173.982618,45.0285252 173.129751,45.4258068 172.591788,45.7995503 C171.539719,46.5311459 170.747685,47.8343491 170.575919,49.1195104 C170.252664,51.5394036 171.379881,54.0636056 172.285233,56.0917134 L171.175908,56.5890024" id="Fill-133" fill="#313131"></path>
                    <path d="M216.414872,63.531932 C215.427216,63.531932 214.623254,64.3366513 214.623254,65.3258527 C214.623254,66.3154126 215.427216,67.1195345 216.414872,67.1195345 C217.401336,67.1195345 218.205179,66.3154126 218.205179,65.3258527 C218.205179,64.3366513 217.401336,63.531932 216.414872,63.531932 Z M216.414872,68.3370683 C214.75673,68.3370683 213.407768,66.9857133 213.407768,65.3258527 C213.407768,63.6651558 214.75673,62.3142788 216.414872,62.3142788 C218.071702,62.3142788 219.420783,63.6651558 219.420783,65.3258527 C219.420783,66.9857133 218.071702,68.3370683 216.414872,68.3370683 L216.414872,68.3370683 Z" id="Fill-138" fill="#313131"></path>
                    <polyline id="Fill-139" fill="#313131" points="113.710837 10.9938879 113.236094 10.0682516 132.790024 0 133.26596 0.925636325 113.710837 10.9938879"></polyline>
                    <polyline id="Fill-140" fill="#313131" points="117.501625 18.3801002 117.026882 17.4544638 136.580812 7.38621225 137.055555 8.31184858 117.501625 18.3801002"></polyline>
                    <polyline id="Fill-141" fill="#313131" points="121.292413 25.7663124 120.816477 24.8406761 133.523609 18.2981347 133.998352 19.223771 121.292413 25.7663124"></polyline>
                    <path d="M158.876722,110.579158 L172.866137,118.669365 L180.942734,104.65757 L166.953319,96.5673631 L158.876722,110.579158 Z M173.31094,120.333766 L157.216314,111.02483 L166.508396,94.904157 L182.603142,104.211898 L173.31094,120.333766 L173.31094,120.333766 Z" id="Fill-143" fill="#313131"></path>
                </g>
            </g>
        </g>
    </g>
</svg>