<?xml version="1.0" encoding="UTF-8"?>
<svg width="9px" height="19px" viewBox="0 0 9 19" version="1.1" xmlns="http://www.w3.org/2000/svg" xmlns:xlink="http://www.w3.org/1999/xlink">
    <title>Group 3</title>
    <g id="Page-1" stroke="none" stroke-width="1" fill="none" fill-rule="evenodd">
        <g id="Desktop-HD" transform="translate(-657.000000, -485.000000)" fill="#313131">
            <g id="Group-6" transform="translate(170.000000, 463.000000)">
                <g id="Group-4-Copy" transform="translate(331.000000, 20.000000)">
                    <g id="Group-3" transform="translate(156.000000, 2.000000)">
                        <g id="arrow-up-3">
                            <path d="M4.48944112,8 L2.61310063,8 C0.286972793,8 -0.668780503,6.43235748 0.497800726,4.51783235 L1.4394918,2.9768731 L2.38119693,1.43589384 C3.54774302,-0.478631281 5.45222201,-0.478631281 6.61880324,1.43589384 L7.56050134,2.9768731 L8.50219944,4.51783235 C9.66878067,6.43235748 8.71302738,8 6.38689252,8 L4.48944112,8 Z" id="Path"></path>
                        </g>
                        <g id="arrow-up-3-copy" transform="translate(4.500000, 15.000000) scale(1, -1) translate(-4.500000, -15.000000) translate(0.000000, 11.000000)">
                            <path d="M4.48944112,8 L2.61310063,8 C0.286972793,8 -0.668780503,6.43235748 0.497800726,4.51783235 L1.4394918,2.9768731 L2.38119693,1.43589384 C3.54774302,-0.478631281 5.45222201,-0.478631281 6.61880324,1.43589384 L7.56050134,2.9768731 L8.50219944,4.51783235 C9.66878067,6.43235748 8.71302738,8 6.38689252,8 L4.48944112,8 Z" id="Path"></path>
                        </g>
                    </g>
                </g>
            </g>
        </g>
    </g>
</svg>