<?xml version="1.0" encoding="UTF-8"?>
<svg width="259px" height="243px" viewBox="0 0 259 243" version="1.1" xmlns="http://www.w3.org/2000/svg" xmlns:xlink="http://www.w3.org/1999/xlink">
    <title>GEOMETRIC_HUMANS_EXPORT-01</title>
    <g id="Page-1" stroke="none" stroke-width="1" fill="none" fill-rule="evenodd">
        <g id="Desktop-HD" transform="translate(-1041.000000, -162.000000)">
            <g id="Group-11" transform="translate(872.000000, 143.000000)">
                <g id="GEOMETRIC_HUMANS_EXPORT-01" transform="translate(169.792547, 19.856242)">
                    <polyline id="Fill-3" fill="#0591E2" points="257.514676 148.545813 231.374449 178.900298 219.699369 135.325201 257.514676 148.545813"></polyline>
                    <path d="M124.868293,108.479572 C124.868293,108.479572 116.330088,108.147166 108.196293,107.829161 C98.5180603,107.451155 89.9361743,101.49546 86.1953245,92.561317 C84.5702455,88.6982152 83.3440561,84.811953 83.4060976,81.9175067 C83.4446185,80.1166379 83.9822314,78.7129754 85.3215836,78.0187643 C88.7281053,76.2536561 91.5509331,77.3555137 93.8295478,79.7007113 C95.4003855,81.3170171 96.715617,83.5128122 97.7932429,85.7960888 C101.315327,93.2657283 108.220293,98.5806133 116.342088,100.073437 C121.799819,101.093454 126.719937,101.997068 126.719937,101.997068 C126.921542,102.034269 127.114747,101.901066 127.151948,101.700663 C127.189148,101.49906 127.054745,101.305857 126.85434,101.268656 C126.85434,101.268656 121.935422,100.363842 116.476491,99.3450256 C108.588702,97.8942023 101.884141,92.7329198 98.464059,85.4800037 C97.3504323,83.120046 95.9835995,80.8546497 94.3611605,79.184343 C91.8503403,76.6001016 88.7339855,75.4155627 84.9804154,77.3606738 C83.4087377,78.1751268 82.7103209,79.7885527 82.6649598,81.9015465 C82.6009983,84.8771141 83.841348,88.8771381 85.5120281,92.8481216 C89.3637606,102.047469 98.2012527,108.180767 108.167492,108.569573 C116.301287,108.887578 124.838292,109.220301 124.838292,109.220301 C125.043497,109.228384 125.215101,109.068781 125.223501,108.864778 C125.231901,108.660775 125.072298,108.487972 124.868293,108.479572" id="Fill-4" fill="#313131"></path>
                    <path d="M127.353552,101.665863 C129.76201,100.183839 132.66248,99.61983 135.399745,100.614646 C135.980559,100.825849 136.83258,101.357458 137.348592,101.997068 C137.612599,102.323473 137.796203,102.676279 137.742202,103.031485 C137.708601,103.255888 137.574198,103.471892 137.326992,103.679495 C136.84098,104.089901 136.345368,104.0227 135.867757,103.809097 C135.272542,103.543893 134.698929,103.074685 134.178116,102.783081 C132.711681,101.959867 131.01484,101.837465 129.526804,102.682279 C129.3492,102.783081 129.286799,103.009884 129.387601,103.187487 C129.488404,103.36629 129.715209,103.428691 129.892813,103.326689 C131.148043,102.615078 132.578478,102.73508 133.815707,103.429891 C134.35452,103.731096 134.949735,104.211103 135.565349,104.485908 C136.299767,104.813513 137.058185,104.877114 137.805803,104.245904 C138.218613,103.896698 138.417818,103.518692 138.475419,103.143086 C138.531821,102.76628 138.445419,102.384674 138.251014,102.017468 C137.745802,101.065853 136.473771,100.21624 135.652952,99.9186347 C132.698481,98.8434175 129.565205,99.435027 126.964743,101.034653 C126.790739,101.142654 126.735538,101.370658 126.84354,101.544661 C126.950343,101.718664 127.179548,101.773864 127.353552,101.665863" id="Fill-5" fill="#313131"></path>
                    <path d="M129.74641,103.416691 C131.902862,104.053901 134.32092,105.288721 134.956935,107.586757 C135.115339,108.161567 135.253342,108.749576 135.048137,109.330385 C134.776931,110.097198 133.94051,110.704407 133.232493,110.116398 C132.976887,109.905195 132.872485,109.546389 132.788483,109.174383 C132.68168,108.706375 132.621679,108.213167 132.496876,107.837561 C132.201669,106.945947 131.526052,106.259536 130.924838,105.564725 C130.790435,105.409923 130.556429,105.393122 130.401625,105.527524 C130.246822,105.660727 130.230021,105.89473 130.364425,106.049533 C130.903238,106.672343 131.529653,107.272352 131.793659,108.070365 C131.937662,108.505972 131.988064,109.107182 132.140467,109.62919 C132.26407,110.056397 132.454875,110.434403 132.758482,110.686407 C133.899709,111.633222 135.309743,110.812409 135.746554,109.577589 C136.00456,108.850378 135.870157,108.108766 135.670952,107.388754 C134.967735,104.845914 132.344472,103.411891 129.956415,102.706279 C129.76081,102.647478 129.554405,102.76028 129.496804,102.955883 C129.438002,103.152686 129.550805,103.35909 129.74641,103.416691" id="Fill-6" fill="#313131"></path>
                    <path d="M130.257622,105.88273 C130.777235,107.285553 131.140843,108.315169 130.329624,109.741992 C130.196421,109.973596 129.972015,110.2352 129.706809,110.393602 C129.505204,110.513604 129.274798,110.577205 129.055193,110.444003 C128.894389,110.345602 128.870389,110.142798 128.849988,109.938795 C128.817587,109.61119 128.842788,109.260784 128.813987,109.00878 C128.710785,108.079965 128.272774,107.259152 127.786763,106.47554 C127.67876,106.302737 127.450755,106.248736 127.27675,106.356738 C127.102746,106.463539 127.048745,106.692743 127.156748,106.866746 C127.583958,107.555557 127.985968,108.273168 128.07717,109.090381 C128.111971,109.399986 128.07117,109.853594 128.144371,110.2376 C128.213973,110.595206 128.373577,110.89761 128.671184,111.077613 C129.057593,111.312817 129.463203,111.305617 129.838812,111.153214 C130.317623,110.960011 130.744834,110.508804 130.974039,110.107998 C131.917262,108.451971 131.556053,107.254352 130.952439,105.625926 C130.881637,105.433923 130.668032,105.335521 130.476027,105.406323 C130.285223,105.478324 130.18682,105.691927 130.257622,105.88273" id="Fill-7" fill="#313131"></path>
                    <path d="M193.957551,111.819225 C199.612087,102.027068 196.255606,89.5045081 186.463371,83.8503776 C176.669936,78.1964872 164.147635,81.5516209 158.4931,91.3444976 L193.957551,111.819225" id="Fill-8" fill="#FF0000"></path>
                    <path d="M95.1951805,86.6287821 C89.879413,77.4206748 78.1049704,74.2658243 68.8966694,79.5822694 C59.6884884,84.8984744 56.5333727,96.6725828 61.8498603,105.88153 L95.1951805,86.6287821" id="Fill-9" fill="#0591E2"></path>
                    <path d="M195.293183,69.1262621 C195.293183,69.1262621 186.804179,72.7083194 181.114843,67.5127162 C175.114699,62.0319886 178.450779,58.2267277 180.690032,57.994524 C187.312991,57.307873 195.293183,69.1262621 195.293183,69.1262621" id="Fill-10" fill="#313131"></path>
                    <path d="M155.611831,121.358178 L146.770018,125.998652 C144.76597,127.049869 142.973127,128.426291 141.576294,130.149518 C140.19146,131.858346 139.083834,133.807177 138.475419,135.968412 C137.871805,138.111646 137.646199,140.322081 137.934206,142.484516 C138.219813,144.62895 138.864229,146.736184 139.997056,148.629814 L159.391921,181.075933 L161.501572,184.878794 L169.109754,180.659527 L166.998904,176.855466 L149.74129,143.226128 C149.441282,142.640518 149.33688,141.988908 149.293679,141.345698 C149.251678,140.721688 149.407682,140.101278 149.620087,139.497668 C149.826492,138.913259 150.211701,138.424851 150.624511,137.978444 C151.02412,137.545237 151.554533,137.257232 152.102946,137.012428 L161.226765,132.953963 L167.024104,130.147118 L161.41037,118.551333 L155.611831,121.358178" id="Fill-11" fill="#313131"></path>
                    <path d="M170.948199,130.369122 L163.308815,144.831753 C162.565997,146.236976 162.040385,147.7346 161.911982,149.286225 C161.785979,150.827049 161.878381,152.399074 162.376393,153.894298 C162.870805,155.378722 163.578822,156.769544 164.596446,157.916763 C165.60447,159.054381 166.786499,160.056397 168.189332,160.720008 L193.261534,172.570197 L197.118427,174.580229 L201.139723,166.866506 L197.282831,164.855274 L173.211453,151.086253 L173.165852,150.762248 L173.351856,150.649446 L182.096466,136.826425 L185.325744,131.253536 L174.177476,124.795033 L170.948199,130.369122" id="Fill-12" fill="#313131"></path>
                    <polyline id="Fill-13" fill="#FF0000" points="165.626071 193.144526 164.77525 191.022892 163.887229 188.087645 169.76017 186.312817 170.648191 189.250464 171.497812 193.336529 172.115827 195.378962 163.811627 199.473428 162.019984 200.513844 159.940334 196.931787 161.730777 195.89137 165.626071 193.144526"></polyline>
                    <path d="M162.109986,203.567893 L172.833444,198.034605 C173.159852,197.865402 173.287055,197.463395 173.119051,197.13819 C172.951047,196.811785 172.549037,196.683383 172.222629,196.851386 L161.499172,202.385874 C161.172764,202.553877 161.044361,202.955883 161.213565,203.282289 C161.381569,203.608694 161.783579,203.737096 162.109986,203.567893" id="Fill-14" fill="#313131"></path>
                    <path d="M164.35044,190.990492 C164.874853,190.914891 165.370465,190.703687 165.891277,190.622086 C166.253686,190.563285 166.500892,190.22128 166.44329,189.860074 C166.385689,189.496468 166.043681,189.249264 165.681272,189.308065 C165.16646,189.389666 164.676848,189.59847 164.158436,189.675271 C163.794827,189.726872 163.542821,190.065277 163.595622,190.428883 C163.648423,190.792489 163.986832,191.043293 164.35044,190.990492" id="Fill-15" fill="#313131"></path>
                    <path d="M165.095658,193.300529 C165.659672,193.294529 166.226085,193.330529 166.788899,193.311329 C167.156108,193.300529 167.444115,192.992124 167.432114,192.626118 C167.420114,192.257712 167.112907,191.969708 166.745698,191.981708 C166.192484,191.999708 165.635671,191.964907 165.082458,191.970908 C164.715249,191.973308 164.420042,192.274512 164.423642,192.642918 C164.427242,193.008924 164.728449,193.305329 165.095658,193.300529" id="Fill-16" fill="#313131"></path>
                    <polyline id="Fill-17" fill="#FF0000" points="205.487428 177.065469 203.384977 176.167855 200.682512 174.718232 203.581782 169.310945 206.285447 170.760568 209.77513 173.050205 211.656776 174.058221 208.677104 182.825561 208.146691 184.827193 204.143395 183.763976 204.673808 181.761144 205.487428 177.065469"></polyline>
                    <path d="M210.367945,186.923627 L214.040033,175.428643 C214.151635,175.079437 213.958431,174.703831 213.609222,174.59223 C213.258814,174.480628 212.884405,174.675031 212.772802,175.024236 L209.100714,186.51922 C208.989112,186.869626 209.182316,187.244032 209.532725,187.355634 C209.881933,187.467236 210.256342,187.274032 210.367945,186.923627" id="Fill-18" fill="#313131"></path>
                    <path d="M203.060969,176.445059 C203.378977,176.020252 203.580582,175.521044 203.891389,175.095038 C204.106194,174.797433 204.038993,174.381026 203.742586,174.166223 C203.444979,173.950219 203.028569,174.01622 202.812563,174.313825 C202.506556,174.736232 202.308551,175.23064 201.995344,175.650646 C201.774538,175.944651 201.83574,176.362258 202.130947,176.581861 C202.424954,176.800265 202.841364,176.740264 203.060969,176.445059" id="Fill-19" fill="#313131"></path>
                    <path d="M205.221021,177.551477 C205.617031,177.14947 206.041841,176.773864 206.42705,176.362258 C206.677856,176.094654 206.664656,175.673447 206.397049,175.422643 C206.128243,175.170639 205.708233,175.185039 205.456227,175.452643 C205.078218,175.85705 204.659408,176.225456 204.272998,176.621462 C204.014992,176.881866 204.018592,177.304273 204.281399,177.561077 C204.543005,177.817881 204.965415,177.814281 205.221021,177.551477" id="Fill-20" fill="#313131"></path>
                    <polyline id="Fill-21" fill="#0591E2" points="64.0823938 192.783321 66.213285 195.630966 67.9359263 197.494596 64.2098369 200.941051 62.4871955 199.077421 57.6337991 194.820953 55.8831971 192.927323 59.8886532 186.198815 62.0323846 183.112366 68.2056928 187.398834 66.0624414 190.485284 64.0823938 192.783321"></polyline>
                    <path d="M64.3999215,203.450291 L54.7910508,194.756152 C54.5348447,194.524548 54.1396752,194.543749 53.9077096,194.799353 C53.6761041,195.054957 53.6959046,195.450963 53.9510307,195.684967 L63.5609813,204.376706 C63.8174275,204.60831 64.212477,204.590309 64.4444425,204.333505 C64.6759281,204.077901 64.6561276,203.681895 64.3999215,203.450291" id="Fill-22" fill="#313131"></path>
                    <path d="M67.3159914,189.358466 C66.7240172,189.065661 66.2174851,188.624054 65.632471,188.325249 C65.3243036,188.169247 64.9476146,188.291649 64.7910108,188.597654 C64.633087,188.906059 64.75513,189.284065 65.0630574,189.440067 C65.6529915,189.741272 66.1648038,190.185279 66.7626582,190.479284 C67.0715456,190.632886 67.4469146,190.506884 67.6005183,190.196079 C67.7531619,189.886474 67.6259589,189.510868 67.3159914,189.358466" id="Fill-23" fill="#313131"></path>
                    <path d="M65.3439841,191.758504 C64.6814482,191.537701 64.0011519,191.361298 63.3432961,191.126094 C63.0184483,191.008492 62.6599997,191.176495 62.5428769,191.5017 C62.4259941,191.826905 62.5949581,192.184511 62.9198059,192.302113 C63.5853419,192.542117 64.2746384,192.72092 64.9459346,192.945323 C65.2727024,193.055725 65.6281509,192.878122 65.7377136,192.551717 C65.8472762,192.225312 65.670752,191.870106 65.3439841,191.758504" id="Fill-24" fill="#313131"></path>
                    <polyline id="Fill-25" fill="#0591E2" points="135.027737 173.441411 138.116611 171.676183 140.17706 170.195359 143.139931 174.316225 141.079482 175.797049 136.258966 180.091918 134.166116 181.596742 127.979967 176.796665 125.1791 174.289825 130.19042 168.689335 132.990088 171.194975 135.027737 173.441411"></polyline>
                    <path d="M145.653992,174.433827 L135.846156,182.903562 C135.58575,183.129166 135.555749,183.523972 135.781355,183.785577 C136.00696,184.045981 136.401769,184.075981 136.664576,183.850378 L146.471211,175.379442 C146.731617,175.153839 146.761618,174.759032 146.536013,174.497428 C146.310407,174.235824 145.914398,174.207023 145.653992,174.433827" id="Fill-26" fill="#313131"></path>
                    <path d="M132.026464,169.812553 C131.662856,170.363362 131.163644,170.812169 130.795235,171.355778 C130.60203,171.642582 130.676432,172.031389 130.962039,172.224592 C131.248846,172.418995 131.638855,172.344594 131.83086,172.057789 C132.202869,171.50938 132.705681,171.055773 133.07169,170.498964 C133.262494,170.210959 133.182092,169.823353 132.891685,169.63255 C132.603678,169.442947 132.216069,169.523348 132.026464,169.812553" id="Fill-27" fill="#313131"></path>
                    <path d="M134.167316,172.063789 C133.866109,172.693799 133.608102,173.34781 133.292495,173.97182 C133.137691,174.279025 133.260094,174.655831 133.568501,174.811833 C133.876909,174.967836 134.252518,174.844234 134.408522,174.535829 C134.728929,173.904619 134.990536,173.243408 135.295343,172.603798 C135.445347,172.292993 135.313343,171.918587 135.002536,171.769784 C134.691728,171.620982 134.317319,171.752984 134.167316,172.063789" id="Fill-28" fill="#313131"></path>
                    <polyline id="Fill-29" fill="#313131" points="158.419898 119.722552 174.218277 140.358082 182.110867 136.288817 188.456619 127.156671 163.194813 117.873322 158.419898 119.722552"></polyline>
                    <path d="M167.873725,106.597942 L161.518372,113.176447 C161.40797,113.290449 161.247166,113.34205 161.091162,113.313249 C160.933958,113.284449 160.801955,113.178847 160.739554,113.032445 L156.41465,102.899482 C156.311447,102.658279 156.42425,102.378674 156.665456,102.275472 C156.906662,102.172271 157.186268,102.285073 157.289471,102.526276 L161.333568,111.999228 L167.722521,105.387122 C167.836524,105.26832 168.003328,105.21792 168.164132,105.25272 C168.324936,105.287521 168.456939,105.402722 168.51214,105.557525 L172.106226,115.610086 L179.177996,108.451971 C179.287199,108.34157 179.442002,108.291169 179.594406,108.316369 C179.74681,108.34157 179.877613,108.439971 179.944815,108.579173 L185.440946,119.951755 C185.554949,120.188159 185.455347,120.472564 185.218941,120.586565 C184.982535,120.700567 184.698129,120.602166 184.584126,120.365762 L179.382001,109.59919 L172.25263,116.817305 C172.137427,116.933707 171.970623,116.982908 171.811019,116.946907 C171.651415,116.912107 171.520612,116.796905 171.465411,116.643302 L167.873725,106.597942" id="Fill-30" fill="#313131"></path>
                    <path d="M77.1867083,105.86593 C75.6906324,103.945899 73.0011279,104.175103 71.2372055,105.169919 C70.8627966,105.381122 70.1080985,105.979932 69.7099289,106.692743 C69.4905636,107.087549 69.3751209,107.520756 69.5984462,107.932363 C70.0848179,108.828777 70.8647166,108.943979 71.6368151,108.815577 C72.2394696,108.715975 72.840684,108.475972 73.3438561,108.279169 C74.6625678,107.75956 76.0368407,106.979548 77.1867083,105.86593 Z M77.7998031,105.214319 C78.965031,103.851098 79.7949709,102.067869 79.9158138,99.7698324 C79.9286541,99.5262285 80.1376992,99.3378254 80.381905,99.3510257 C80.6259909,99.3642259 80.8136754,99.5730292 80.8008351,99.8166331 C80.6627118,102.442275 79.6806082,104.457107 78.3183355,105.973932 C79.547405,108.119566 79.1165947,110.414003 78.0191683,112.386834 C76.8995414,114.399266 75.0865379,116.064893 73.7588261,116.855706 C73.1482514,117.219312 72.4979558,117.368114 71.8615805,117.618918 C71.6338151,117.708919 71.3762889,117.597318 71.2866467,117.369314 C71.1965246,117.14251 71.3084873,116.884506 71.5357727,116.794505 C72.1281069,116.560501 72.7372415,116.432099 73.3056952,116.093694 C74.5342847,115.362882 76.2086849,113.818457 77.2446697,111.956027 C78.1553716,110.318001 78.5743016,108.425571 77.6685199,106.635142 C76.4582909,107.76316 75.0379368,108.564773 73.6682239,109.103582 C72.965007,109.380786 72.0859859,109.715591 71.2514859,109.744392 C70.3105433,109.779193 69.4182019,109.458787 68.8195075,108.35597 C68.4431785,107.662359 68.5659414,106.925547 68.9359103,106.261936 C69.422642,105.389522 70.3442641,104.656311 70.8018351,104.398306 C72.8728448,103.229488 75.9991598,103.033885 77.7998031,105.214319 L77.7998031,105.214319 Z" id="Fill-31" fill="#313131"></path>
                    <path d="M158.820708,37.12511 C158.652704,34.6152699 158.008288,31.750224 156.394249,29.748472 C156.121843,29.4099466 155.547029,28.7789765 154.965015,28.5072922 C154.447803,28.2663283 153.92699,28.2723284 153.50458,28.7288157 C153.246574,29.0081802 153.112171,29.3607458 153.065369,29.7404319 C153.006568,30.2324398 153.10017,30.7713684 153.212973,31.2021753 C153.595782,32.6607986 154.141795,34.0648211 154.487404,35.5341246 C154.537805,35.750368 154.75501,35.8845302 154.971015,35.8337694 C155.18702,35.7828886 155.321424,35.5661651 155.269822,35.3500416 C154.923014,33.873898 154.375801,32.4631555 153.991792,30.997692 C153.91499,30.7084874 153.845388,30.3591618 153.852588,30.0211164 C153.858588,29.744992 153.91259,29.4740276 154.096194,29.2754244 C154.247398,29.1116218 154.439402,29.1501424 154.624207,29.2367838 C155.094618,29.4561473 155.547029,29.9799557 155.767834,30.2535601 C157.281071,32.1306301 157.860685,34.8253932 158.017888,37.1788709 C158.032289,37.4005144 158.224293,37.5683971 158.446299,37.5536369 C158.668304,37.5387567 158.836308,37.3469936 158.820708,37.12511" id="Fill-32" fill="#313131"></path>
                    <path d="M157.111867,38.5530129 C156.796259,37.7931607 156.484251,37.0304285 156.046241,36.3324974 C155.60343,35.6301261 154.840212,35.059517 154.075794,34.8335534 C153.51658,34.6687907 152.957367,34.686551 152.500156,34.9273949 C152.011744,35.183839 151.614535,35.6968472 151.484931,36.5811413 C151.373329,37.3503536 151.633735,38.1520865 152.106546,38.8838582 C152.770162,39.9120346 153.846588,40.8018489 154.728609,41.2543761 C155.070618,41.4299389 155.664632,41.6560225 156.203445,41.686023 C156.649855,41.7107434 157.059065,41.5996216 157.333872,41.310057 C157.486276,41.1488944 157.479075,40.8940103 157.318271,40.7411279 C157.157468,40.5883655 156.901862,40.5950856 156.749458,40.7561281 C156.630655,40.8817701 156.44225,40.8930503 156.247846,40.8822502 C155.826636,40.8589698 155.363425,40.6757269 155.095818,40.5382047 C154.318199,40.1389583 153.367777,39.3545057 152.782163,38.4474112 C152.422154,37.8888023 152.195349,37.2844726 152.281751,36.6974232 C152.362153,36.1446944 152.569758,35.8001688 152.874565,35.6398463 C153.156572,35.4912839 153.50338,35.5037641 153.847788,35.6055257 C154.437002,35.7796485 155.023816,36.2201756 155.364625,36.7611442 C155.779835,37.4209148 156.070242,38.1438063 156.369049,38.8618978 C156.454251,39.0671011 156.689456,39.1644227 156.894661,39.0789813 C157.099866,38.9937799 157.197069,38.7579762 157.111867,38.5530129" id="Fill-33" fill="#313131"></path>
                    <path d="M151.810139,37.6568386 C151.456131,37.6075178 151.084122,37.5500368 150.725313,37.5884375 C149.470083,37.7227196 148.949271,39.0854614 149.218077,40.1721988 C149.431682,41.0354926 150.631711,42.4209148 151.900141,43.0340046 C152.843364,43.4902519 153.806987,43.5189323 154.481403,42.812121 C154.635007,42.6514385 154.629007,42.3964344 154.469403,42.2430719 C154.308599,42.0898295 154.052993,42.0955896 153.899389,42.2562721 C153.469779,42.7063993 152.851764,42.5999576 152.25055,42.309313 C151.202925,41.8026649 150.1757,40.6924071 149.999296,39.9791157 C149.839692,39.3305053 150.061697,38.4687715 150.811715,38.3886103 C151.104522,38.3574098 151.40933,38.4136907 151.699737,38.4540113 C151.919342,38.4848518 152.123347,38.3310093 152.153348,38.1109258 C152.184548,37.8909623 152.030945,37.687439 151.810139,37.6568386" id="Fill-34" fill="#313131"></path>
                    <path d="M153.132571,47.9416031 C154.74541,59.5327086 157.893085,71.5159803 161.257966,82.7728804 C161.319168,82.9812037 161.539973,83.1000056 161.747578,83.0374846 C161.956383,82.9753236 162.075186,82.7553601 162.012784,82.5471568 C158.659904,71.3281773 155.520628,59.3854662 153.91379,47.8328814 C153.883789,47.6174779 153.684584,47.4668755 153.468579,47.496996 C153.253774,47.5268765 153.10257,47.7261997 153.132571,47.9416031" id="Fill-35" fill="#313131"></path>
                    <path d="M158.049089,37.2137915 C162.736402,49.9666355 167.886925,65.3861622 171.695817,79.8870742 C171.751018,80.0974376 171.967023,80.2233196 172.177028,80.1681187 C172.388233,80.1129178 172.514236,79.8969144 172.459035,79.686671 C168.642943,65.1613986 163.48522,49.7160715 158.789507,36.9417471 C158.713905,36.7376238 158.4871,36.6326222 158.283095,36.7078634 C158.07909,36.7829846 157.974687,37.0096682 158.049089,37.2137915" id="Fill-36" fill="#313131"></path>
                    <path d="M181.581654,66.8439455 C178.868389,69.8048729 178.375177,72.5927575 179.183996,74.6661507 C180.001216,76.7667843 182.172068,78.1807669 184.888933,78.3456496 C185.802155,78.4010905 186.780179,78.1679267 187.639399,77.874522 C189.648247,77.1882311 190.914278,75.8934103 191.864701,74.3234252 C192.777923,72.8168011 193.395937,71.0516929 194.133955,69.3542657 C194.222757,69.1505024 194.129155,68.9130186 193.92515,68.8246972 C193.722345,68.7360158 193.484739,68.8294973 193.395937,69.0331406 C192.67232,70.6972072 192.071106,72.4296749 191.175884,73.9065385 C190.320264,75.3202812 189.188636,76.49486 187.378993,77.1128698 C186.615775,77.373274 185.749354,77.5914375 184.936934,77.5422367 C182.568077,77.3984744 180.648031,76.2064953 179.934014,74.373946 C179.209197,72.5145163 179.74201,70.0429567 182.175668,67.3880342 C182.325672,67.2242316 182.314871,66.9694676 182.150467,66.8194652 C181.987264,66.6693428 181.731657,66.6803829 181.581654,66.8439455" id="Fill-37" fill="#313131"></path>
                    <path d="M80.672672,64.2777045 C82.3168315,67.8230412 81.3091673,72.2677923 77.4682351,72.5394767 C76.8259797,72.5850774 76.1410032,72.3816741 75.5379888,72.1411903 C74.0853539,71.562421 73.1813722,70.4590034 72.4938757,69.1349022 C71.7715784,67.7435999 71.2866467,66.1119338 70.7022327,64.5443488 C70.630831,64.3529457 70.4171059,64.2551441 70.2253413,64.3267853 C70.0338167,64.3980664 69.9361343,64.6117898 70.007656,64.8034329 C70.6027503,66.3995784 71.1004023,68.059805 71.8360199,69.4764277 C72.6064384,70.9604914 73.6355831,72.1811509 75.2635422,72.8297613 C75.9677191,73.1105658 76.7706584,73.3319694 77.5205563,73.2789285 C81.8843411,72.9700436 83.213133,67.9939239 81.3451681,63.9659395 C81.2591261,63.7804165 81.0385608,63.6995352 80.8529163,63.7854566 C80.6675119,63.871618 80.5866299,64.0923015 80.672672,64.2777045" id="Fill-38" fill="#313131"></path>
                    <path d="M70.3699447,64.312145 C69.5172043,64.2790245 68.5607813,64.120982 67.9445665,63.4871318 C67.0696255,62.5873574 67.0349447,60.8479296 68.3129754,60.3240012 C68.8928293,60.0862774 69.5125242,60.2247596 70.1149386,60.2642403 C70.3189435,60.2774405 70.4955877,60.122518 70.5090281,59.9183947 C70.5224684,59.7143915 70.3675447,59.5377486 70.1632998,59.5245484 C69.4503627,59.4778677 68.7181051,59.3566657 68.0319286,59.6380703 C66.2621261,60.3634819 66.2017647,62.7577602 67.4130738,64.0039801 C68.1610517,64.7733124 69.3055192,65.0127162 70.340904,65.0529169 C70.5453889,65.060837 70.7177131,64.9014745 70.7256333,64.6971112 C70.7335535,64.4927479 70.5741896,64.3203052 70.3699447,64.312145" id="Fill-39" fill="#313131"></path>
                    <path d="M195.480387,69.1262621 C195.480387,69.1262621 189.575046,63.8830182 187.920206,62.0379886 C183.014488,56.5687811 192.373513,51.6982632 194.891173,59.1442623 C196.285607,63.2671683 195.618391,66.5177803 195.480387,69.1262621" id="Fill-40" fill="#313131"></path>
                    <path d="M191.397889,73.8028569 C194.195157,72.3342734 197.645239,70.1621186 198.92687,67.2657523 C199.555685,65.8432495 199.098474,63.7864166 197.098026,64.6579906 C195.528389,65.3414015 194.727969,66.8446656 193.983951,68.2436479 C193.196733,69.7254316 191.397889,73.8028569 191.397889,73.8028569" id="Fill-41" fill="#313131"></path>
                    <path d="M206.301047,128.9723 C210.720753,123.173807 212.322792,114.723272 210.967959,107.478756 C209.473923,99.4914279 204.259798,92.060909 196.667216,89.5779493 C193.053929,88.3958104 189.170636,89.8583938 187.773802,93.4109306 C186.384169,96.9437871 188.370217,100.389042 191.549093,102.438675 C196.393609,105.561125 198.846468,106.900346 200.401705,110.944411 C202.162148,115.523684 202.500556,120.765368 200.314103,125.114238 C200.213301,125.315841 200.294903,125.561845 200.496508,125.663847 C200.698113,125.764648 200.944119,125.683047 201.044921,125.481444 C203.333376,120.929771 203.008168,115.443283 201.166124,110.651606 C199.546085,106.440739 197.035625,105.001916 191.991904,101.751064 C189.149035,99.9186347 187.291391,96.870586 188.534621,93.7109354 C189.76945,90.5692851 193.218333,89.310105 196.41281,90.3556817 C203.729385,92.74852 208.723905,99.931835 210.16394,107.628758 C211.477971,114.654871 209.937134,122.852202 205.650631,128.477892 C205.513828,128.656695 205.548629,128.913499 205.727433,129.050301 C205.907438,129.187103 206.164244,129.152302 206.301047,128.9723" id="Fill-42" fill="#313131"></path>
                    <path d="M197.305631,130.402722 C196.789619,130.365522 196.252006,130.334321 195.733593,130.24552 C194.913974,130.102718 194.141155,129.818313 193.535141,129.195503 C192.587118,128.223488 192.995128,126.52066 194.101554,125.908651 C194.74957,125.549845 195.623191,125.597846 196.318007,125.686647 C197.402834,125.827049 198.566861,126.086253 199.608486,126.439059 C199.823292,126.51106 199.938494,126.742664 199.865293,126.956267 C199.793291,127.171071 199.561685,127.286273 199.34808,127.213071 C198.354456,126.878266 197.24563,126.631062 196.212405,126.49786 C195.675992,126.429459 194.997976,126.347858 194.497564,126.623862 C193.821948,126.998268 193.542341,128.031485 194.120755,128.625494 C194.601966,129.118702 195.222381,129.326305 195.872797,129.439107 C196.600014,129.565109 197.365633,129.571109 198.053249,129.64791 C198.217653,129.665911 198.306455,129.747512 198.362857,129.824313 C198.418058,129.899914 198.450459,129.989916 198.444459,130.097918 C198.442058,130.160319 198.422858,130.24552 198.366457,130.336721 C198.326856,130.400322 198.227253,130.496324 198.188852,130.555125 C198.118051,130.666727 198.044849,130.777128 197.968047,130.88393 C197.714841,131.239136 197.442434,131.578741 197.152028,131.900346 C196.946823,132.12715 196.736818,132.347954 196.531613,132.573557 C196.111603,133.039165 195.410786,133.874378 195.110779,134.717992 C194.946375,135.177599 194.895973,135.642006 195.18158,136.015212 C195.265582,136.126814 195.410786,136.158015 195.554789,136.170015 C195.756394,136.185615 195.969999,136.146014 196.132003,136.086013 C196.596414,135.913211 197.012824,135.558005 197.404034,135.165599 C197.838444,134.729992 198.240454,134.246384 198.622063,133.861178 C198.875269,133.605574 199.106874,133.331969 199.35288,133.070365 C199.369681,133.053565 199.537685,132.851962 199.579686,132.815961 C199.77409,132.646758 199.963695,132.72116 200.016496,132.74396 C200.126899,132.790761 200.1929,132.859162 200.234901,132.925163 C200.296103,133.022364 200.320104,133.130366 200.298503,133.250368 C200.284103,133.336769 200.228901,133.456771 200.117299,133.570773 C200.041697,133.647574 199.910894,133.735176 199.860493,133.807177 C199.649287,134.104782 199.459683,134.426387 199.276078,134.744392 C198.984471,135.2556 198.611263,135.819609 198.397657,136.411219 C198.215253,136.914027 198.152852,137.437235 198.439658,137.955643 C198.50686,138.075645 198.616063,138.103246 198.728865,138.097246 C198.862069,138.091246 199.001272,138.046845 199.128475,137.995244 C199.913294,137.679639 200.400505,136.798825 200.864917,136.107614 C201.060521,135.816009 201.262126,135.519604 201.42173,135.202799 C201.484131,135.080397 201.536933,134.954395 201.601734,134.830793 C201.636535,134.767192 201.722937,134.59319 201.739738,134.571589 C201.922142,134.331585 202.151347,134.410787 202.225749,134.441987 C202.25935,134.456387 202.562957,134.583589 202.456155,134.948395 C202.207749,135.790809 201.756538,136.746024 201.566933,137.685639 C201.401329,138.502852 201.44213,139.308065 202.126147,139.981276 C202.453755,140.304081 202.844964,140.176879 203.194173,139.940475 C203.657384,139.62607 204.061793,139.107662 204.270598,138.716456 C205.269022,136.850426 205.732233,134.487588 205.051817,132.443955 C204.952215,132.14635 204.834612,131.671143 204.655808,131.272736 C204.568205,131.075933 204.474603,130.89473 204.3402,130.804729 C204.152996,130.678727 204.102594,130.425523 204.227397,130.23712 C204.3534,130.049917 204.607806,129.999516 204.795011,130.125518 C205.037417,130.287521 205.245022,130.585125 205.402226,130.937931 C205.59303,131.362738 205.721433,131.867946 205.827036,132.185951 C206.578254,134.438387 206.092242,137.046029 204.991816,139.102862 C204.677408,139.690871 203.998192,140.500884 203.275774,140.830889 C202.69136,141.094894 202.081746,141.084093 201.552533,140.564485 C200.694513,139.720872 200.558909,138.727256 200.731713,137.706039 C200.365705,138.153646 199.945695,138.548453 199.434482,138.754856 C198.824868,138.99846 198.10125,139.032061 197.724441,138.35165 C197.312831,137.606438 197.366833,136.855226 197.628439,136.131614 C197.639239,136.100414 197.65244,136.066813 197.66444,136.034413 C197.27683,136.387218 196.862821,136.686023 196.41761,136.851626 C196.103202,136.970428 195.668792,137.032829 195.288383,136.957227 C194.984775,136.897226 194.714769,136.754424 194.531165,136.51202 C194.075154,135.914411 194.077554,135.179999 194.34036,134.443187 C194.677568,133.495172 195.452787,132.548357 195.925598,132.025148 C196.129603,131.799545 196.340808,131.578741 196.544813,131.351938 C196.813619,131.054333 197.066825,130.737528 197.302031,130.408723 L197.305631,130.402722" id="Fill-43" fill="#313131"></path>
                    <path d="M149.932094,40.5419247 C149.659688,40.558005 149.35848,40.6663667 149.150875,40.8496096 C148.202853,41.6902231 148.414058,42.9845638 149.081274,43.9078586 C149.647687,44.6911111 150.679712,45.2604002 151.639735,45.24984 C152.051345,45.24528 152.419754,45.1139979 152.815763,45.0367166 C153.034169,44.994476 153.176972,44.7830326 153.134971,44.5649891 C153.09177,44.3468256 152.880565,44.2043833 152.66216,44.246624 C152.314151,44.3144251 151.992544,44.4411471 151.631335,44.4451072 C150.916118,44.4527873 150.1553,44.0187403 149.734089,43.436131 C149.300879,42.8369614 149.070474,41.997428 149.684888,41.4518993 C149.76289,41.3834982 149.878093,41.3513377 149.980095,41.3453376 C150.202101,41.3322574 150.371305,41.1415743 150.358104,40.9196908 C150.344904,40.6980472 150.1541,40.5287245 149.932094,40.5419247" id="Fill-44" fill="#313131"></path>
                    <path d="M201.758938,58.8303373 C203.128171,57.2951528 204.791411,55.9230508 205.947039,54.2141035 C206.071842,54.0302605 206.02264,53.7798165 205.839036,53.6553745 C205.655432,53.5308125 205.404626,53.5792933 205.281023,53.7632563 C204.144595,55.4428031 202.502956,56.7861046 201.158924,58.2947688 C201.01132,58.4603714 201.02572,58.7151355 201.191324,58.8628578 C201.356928,59.0107002 201.611335,58.99594 201.758938,58.8303373" id="Fill-45" fill="#313131"></path>
                    <path d="M204.858612,64.1668227 C207.965487,63.3800901 211.125163,62.3509537 214.269238,61.7699044 C214.487644,61.7295837 214.631647,61.5194604 214.592046,61.3009369 C214.551245,61.0826534 214.34124,60.9380511 214.122835,60.9782517 C210.961959,61.562781 207.785483,62.5956376 204.660608,63.3864502 C204.445803,63.4409311 204.314999,63.6601746 204.370201,63.875458 C204.424202,64.0906215 204.643807,64.2213036 204.858612,64.1668227" id="Fill-46" fill="#313131"></path>
                    <path d="M204.221397,69.9252348 C206.359848,70.4522833 208.597902,71.1637747 210.689552,71.8331454 C210.900757,71.9007065 211.127563,71.7840646 211.195965,71.5725012 C211.263166,71.3609378 211.146763,71.1342542 210.935558,71.0665731 C208.825908,70.3918023 206.569854,69.6751508 204.413402,69.1436623 C204.197397,69.0905015 203.980191,69.2225036 203.92619,69.4381471 C203.873389,69.6537905 204.005392,69.872074 204.221397,69.9252348" id="Fill-47" fill="#313131"></path>
                    <path d="M75.3473042,152.521476 C72.9867275,151.311857 59.2412376,143.762536 53.7310654,129.397106 C51.8885412,124.59463 52.1652678,120.910571 53.4326182,118.107326 C56.3851691,111.574421 64.8030111,109.812793 64.8030111,109.812793 C65.0032959,109.770792 65.1996206,109.900394 65.2412616,110.100798 C65.2825426,110.300001 65.1538995,110.496804 64.9536147,110.538805 C64.9536147,110.538805 56.9197819,112.191231 54.1079944,118.412131 C52.9047256,121.074973 52.67372,124.571829 54.423002,129.131902 C60.3572644,144.60135 76.0127202,152.024668 76.0127202,152.024668 C76.1045224,152.069069 76.174124,152.14827 76.2060448,152.244272 C76.2377256,152.340273 76.2284853,152.445875 76.1808442,152.534677 L62.3764329,178.331489 L71.5550932,184.132382 L84.3855611,162.76124 C87.6978806,157.243552 87.9485666,150.413043 85.049417,144.667351 C80.7032727,136.056013 74.9454145,124.64623 74.9454145,124.64623 C74.879413,124.514228 74.8968134,124.357026 74.9902956,124.243024 L79.7610101,118.443331 C79.8912132,118.284929 80.1248589,118.262128 80.2827826,118.39293 C80.4408264,118.522532 80.463507,118.756536 80.3335439,118.913739 L75.716193,124.527428 L85.7112329,144.333745 C88.7249853,150.306241 88.464579,157.406755 85.0212164,163.141646 C79.5774057,172.210191 71.9952637,184.839193 71.9952637,184.839193 C71.9440225,184.924395 71.8603805,184.985596 71.7631782,185.008396 C71.6663358,185.032397 71.5639734,185.014396 71.4797314,184.961595 L61.6888164,178.774296 C61.5244124,178.669895 61.4684911,178.457491 61.5600533,178.285889 L75.3473042,152.521476" id="Fill-48" fill="#313131"></path>
                    <path d="M127.575558,164.344066 L103.046969,136.038013 C97.9996478,130.214319 94.8915733,122.531797 91.2883668,116.591702 C88.9408704,112.72164 86.3911692,109.59439 82.9030455,108.282769 C82.7114009,108.211967 82.6144386,107.997164 82.6863203,107.806361 C82.7582021,107.614358 82.9724072,107.517156 83.1636918,107.589157 C86.7946189,108.953579 89.4786033,112.179231 91.922342,116.207695 C95.505988,122.11539 98.587662,129.760712 103.606182,135.552005 C117.136507,151.166655 128.335176,164.087261 128.335176,164.087261 C128.450379,164.220464 128.456379,164.416067 128.349576,164.555269 L122.68064,171.967788 C122.618239,172.046989 122.527037,172.09859 122.428634,172.11059 C122.326632,172.12139 122.227029,172.09139 122.149027,172.027788 L91.2288453,146.541781 C91.0710416,146.412179 91.048481,146.178175 91.1784441,146.019772 C91.3087673,145.86257 91.5426529,145.839769 91.7004567,145.970572 L122.324232,171.211775 L127.575558,164.344066" id="Fill-49" fill="#313131"></path>
                    <path d="M68.6543836,58.0666451 C68.6543836,59.9476752 74.6037663,64.4602274 81.0091601,64.121942 C86.7818986,63.8168971 87.6784401,54.4915479 81.0091601,52.8344414 C73.132051,50.8768501 68.6543836,58.0666451 68.6543836,58.0666451" id="Fill-50" fill="#313131"></path>
                    <path d="M70.6943125,59.9145547 C70.1047384,59.8942743 69.5260845,59.9733556 68.9525907,60.1048777 C67.4723552,60.4446032 66.3248877,61.9075466 67.4993558,63.3398895 C68.465259,64.5179483 72.2401896,64.9612354 70.8672367,67.2885527 C69.924374,68.8862582 67.6085585,68.7054153 66.0865619,68.3488896 C62.4699151,67.5014361 59.882053,64.434667 59.33736,60.931811 C58.7912268,57.4188747 61.8224996,53.7990168 65.2370615,53.0433647 C68.1767721,52.3928343 71.9476226,53.4195708 72.7108409,56.6353822 L70.6943125,59.9145547" id="Fill-51" fill="#313131"></path>
                    <path d="M62.7819226,63.6704948 C59.3607605,63.8608178 56.4488906,64.5303085 53.8337879,66.8221052 C50.8712768,69.4181067 50.4451465,74.2805845 54.2059168,76.433899 C56.9266221,77.9912839 60.7680343,77.2731924 63.2099729,75.500404 C64.0600733,74.8829942 64.9338143,74.2165035 65.5451089,73.37505 C65.7443137,73.1004856 65.9069176,72.808401 66.0563212,72.5068362 C66.1273629,72.3634339 66.2888868,71.9175067 66.2587661,72.0730292 C66.0359207,73.2195276 65.9325982,74.438027 66.7216172,75.4249228 C68.4298582,77.560957 71.8150194,76.1427743 72.5814778,73.9911399 C73.5127002,71.3772581 72.1840283,69.2323438 71.1029223,66.9856678 L62.7819226,63.6704948" id="Fill-52" fill="#313131"></path>
                    <path d="M78.9451105,79.8594738 C78.9485906,79.9733556 78.9464306,80.0871174 78.9361103,80.2001592 C78.8911092,80.6979272 78.6689839,81.3131771 78.2901348,81.7295837 C78.003928,82.0439887 77.6332391,82.249432 77.1903084,82.2549521 C76.216365,82.2668323 75.6114305,81.6987432 75.2736224,80.8932903 C74.8261317,79.8256333 74.882053,78.3162491 75.0855779,77.4775557 C75.1338191,77.2787125 75.3342239,77.1564305 75.5330686,77.2045513 C75.7319134,77.2530321 75.8541964,77.4534353 75.8059552,77.6522785 C75.629911,78.3776901 75.5700295,79.683431 75.9573988,80.6066057 C76.1761641,81.1283741 76.5502131,81.5212604 77.1810682,81.5135803 C77.4762753,81.5098602 77.6979206,81.3173771 77.8612445,81.0789333 C78.0570892,80.7932087 78.170732,80.433203 78.1979726,80.1331982 C78.2201731,79.8877942 78.1911324,79.6379502 78.1604117,79.3943464 C78.1481714,79.2984648 78.0594893,79.124342 78.0377688,79.0225804 C78.0144882,78.9132587 78.0263685,78.8234972 78.046049,78.7644563 C78.0807298,78.6594546 78.1461314,78.5870934 78.2308534,78.5399327 C78.3048952,78.499012 78.4137378,78.4628914 78.5667415,78.5132923 C78.6700639,78.5471328 78.7875468,78.621774 78.9008295,78.7284557 C79.0586333,78.8767781 79.2207572,79.1010617 79.3313998,79.2055833 C79.671608,79.5271885 80.0173363,79.8557537 80.4674671,80.0133163 C80.7721544,80.119758 81.133003,80.1573186 81.4319302,80.0853174 C81.5833739,80.0488368 81.7190971,79.9858358 81.8020191,79.870634 C81.8931013,79.7435519 81.9076216,79.5631891 81.8525403,79.3254652 C81.7019367,78.6763749 81.3059272,78.3782901 80.9097977,77.8991224 C80.7792346,77.7415599 80.8015551,77.5074362 80.9589989,77.3772341 C81.1168027,77.246912 81.3505683,77.2689923 81.4811314,77.4267949 C81.9552628,78.000524 82.3942333,78.3805701 82.5745976,79.1579426 C82.6913604,79.6612306 82.5970382,80.0341966 82.4040736,80.3028809 C82.2216692,80.556805 81.9396624,80.7251676 81.6060544,80.8056889 C81.1775241,80.9092506 80.6595917,80.8655699 80.2227812,80.7130474 C79.7269293,80.5396447 79.3241996,80.2108394 78.9451105,79.8594738" id="Fill-53" fill="#313131"></path>
                    <path d="M24.3314398,63.4292909 C24.3314398,63.4292909 26.8631406,71.5894215 29.2747184,79.3635059 C32.2305094,88.8900983 40.4412264,95.8385695 50.3251437,97.1789909 C54.5924461,97.7646003 58.7774265,97.9266029 61.6351751,97.0949896 C63.6644238,96.5045801 65.0421769,95.4125626 65.422106,93.683335 C66.3294478,89.5541889 64.3788009,86.8505456 61.2324454,85.0939575 C59.1991166,83.9589794 56.6573356,83.2260077 54.089754,82.7606402 C46.1984846,81.3347774 39.4774833,76.1940151 36.0356807,68.9511793 C33.6375432,63.9415791 31.4910516,59.4244668 31.4910516,59.4244668 C31.4033295,59.2397839 31.1816842,59.1610626 30.9968798,59.248664 C30.8123154,59.3366254 30.7337135,59.557789 30.8214356,59.7425919 C30.8214356,59.7425919 32.9684071,64.2606642 35.3666647,69.2701444 C38.9103497,76.7277837 45.8313958,82.0217884 53.9576308,83.4902519 C56.4421705,83.9402591 58.9036695,84.6427503 60.8712368,85.7411279 C63.7265853,87.3353534 65.5213484,89.7767925 64.6978886,93.5237324 C64.3742408,94.997356 63.1574116,95.8805701 61.4278101,96.3833782 C58.6480634,97.1921911 54.5769657,97.0133883 50.4252261,96.4433791 C40.8263157,95.1425583 32.8527243,88.3949704 29.9829754,79.1439023 C27.5710376,71.369938 25.0392168,63.2095674 25.0392168,63.2095674 C24.9788553,63.0143243 24.7708904,62.9047625 24.5754057,62.9653635 C24.380281,63.0260845 24.2707184,63.2339278 24.3314398,63.4292909" id="Fill-54" fill="#313131"></path>
                    <path d="M24.3465602,62.6091978 C21.5872139,63.2300877 18.6603437,62.8226812 16.3944493,60.9936119 C15.9134778,60.6052857 15.2797426,59.8268333 14.9989358,59.0543809 C14.8550524,58.6587346 14.796251,58.2657283 14.9622149,57.9473632 C15.0673375,57.74636 15.2645022,57.5859174 15.5649894,57.4689155 C16.1578036,57.2382719 16.6050544,57.4636355 16.9876236,57.8201612 C17.464755,58.2644083 17.8547644,58.8936983 18.2528139,59.3390255 C19.3732808,60.5930455 20.9382384,61.2589362 22.6200787,60.9427311 C22.8209636,60.9050505 22.9535667,60.7108874 22.9157658,60.5098842 C22.8778449,60.308641 22.6840403,60.1763989 22.4829154,60.2143195 C21.0644814,60.4809637 19.7508099,59.9027945 18.8055472,58.8450976 C18.3938173,58.3845302 17.9862875,57.7371198 17.4928357,57.2775125 C16.9044616,56.7297037 16.2074848,56.4235788 15.296423,56.7781845 C14.7919309,56.9745076 14.4811234,57.2673123 14.3050792,57.6046377 C14.1289149,57.9423231 14.087274,58.3319694 14.1521955,58.7415359 C14.3211596,59.8059529 15.2493818,61.0220524 15.9288381,61.5704612 C18.3748569,63.5449728 21.5304526,64.0025401 24.5092841,63.3325694 C24.7087289,63.2876886 24.8344919,63.0892055 24.7894908,62.8894023 C24.7446097,62.6899591 24.546005,62.5644371 24.3465602,62.6091978" id="Fill-55" fill="#313131"></path>
                    <path d="M22.6503195,60.1769989 C20.8173955,58.874258 18.9303502,56.9217068 19.0747136,54.5421887 C19.1108345,53.9476992 19.171316,53.3455296 19.5538851,52.8633619 C20.0592173,52.2265117 21.047441,51.9231468 21.5266125,52.7090394 C21.6990566,52.9917639 21.6814162,53.3652099 21.6414553,53.7438159 C21.590454,54.2209436 21.4866515,54.7075514 21.4825714,55.1025977 C21.4724912,56.0420927 21.8889012,56.9104266 22.2328294,57.7630402 C22.3091513,57.9528833 22.5253965,58.0446848 22.715121,57.9682435 C22.9048456,57.8915623 22.9967678,57.6756789 22.9202059,57.4857158 C22.6121585,56.7220236 22.214949,55.9519713 22.2239492,55.1105178 C22.2285093,54.6525905 22.3763529,54.0673411 22.4019135,53.5237324 C22.423034,53.0793653 22.3651926,52.6604386 22.1595077,52.3229932 C21.3875292,51.057213 19.7871707,51.3766581 18.9730712,52.4025545 C18.4930597,53.0072442 18.380017,53.7516161 18.3348959,54.497428 C18.1749321,57.1318302 20.1914605,59.3389055 22.2208292,60.7812085 C22.3876332,60.8995304 22.6192387,60.8606498 22.7376816,60.6938471 C22.8560044,60.5270445 22.8171235,60.2954408 22.6503195,60.1769989" id="Fill-56" fill="#313131"></path>
                    <path d="M22.9670071,57.6781989 C22.9308862,56.183455 22.9202059,55.0905975 24.1511955,54.0053001 C24.3514803,53.8285373 24.6489674,53.6544145 24.9507747,53.5908135 C25.1815402,53.5420927 25.4196259,53.557333 25.5835499,53.7540161 C25.7045128,53.8993384 25.6607117,54.0993816 25.6140306,54.2985848 C25.5387888,54.6186299 25.4015055,54.9422751 25.3464242,55.1903191 C25.1432593,56.1025737 25.2912228,57.0211884 25.4963078,57.9186827 C25.5419089,58.1182459 25.7407536,58.2431679 25.9400784,58.1975672 C26.1394032,58.1520865 26.2645662,57.9531233 26.2189651,57.7535601 C26.0383608,56.9631075 25.8909972,56.1548945 26.0698015,55.3517217 C26.1376032,55.0475168 26.3239676,54.6313501 26.3780889,54.244704 C26.4284901,53.8843382 26.3754489,53.5465328 26.1530835,53.2796485 C25.8632766,52.9317629 25.4780673,52.806961 25.0732976,52.8286813 C24.5572852,52.8562817 24.006352,53.1444064 23.6607437,53.4493312 C22.2310294,54.7095914 22.1839883,55.9601314 22.2259893,57.6960792 C22.2311494,57.9006825 22.4011935,58.062685 22.6055584,58.057765 C22.8098033,58.0528449 22.9719272,57.8825622 22.9670071,57.6781989" id="Fill-57" fill="#313131"></path>
                    <path d="M57.9962078,50.309601 L53.1585317,46.3216972 C52.9830874,46.1775749 52.7232812,46.2022953 52.5792778,46.3777381 C52.4347943,46.5531809 52.4595149,46.812385 52.6348391,46.9569874 L57.4725152,50.9447712 C57.6479594,51.0888935 57.9077656,51.0641731 58.0522491,50.8888503 C58.1962526,50.7134075 58.171652,50.4542033 57.9962078,50.309601" id="Fill-58" fill="#313131"></path>
                    <path d="M64.2293974,45.809289 L59.3912412,33.0677251 C59.3104793,32.8553217 59.0727536,32.74888 58.8603485,32.8290413 C58.6484234,32.9099226 58.5413808,33.1475264 58.6216628,33.3599298 L63.4599389,46.1014937 C63.5401008,46.3134171 63.7783065,46.4203388 63.9907116,46.3396975 C64.2026367,46.2592962 64.3096793,46.0212124 64.2293974,45.809289" id="Fill-59" fill="#313131"></path>
                    <path d="M73.2042928,44.4760677 L75.0836579,39.2829846 C75.1608197,39.0695012 75.0502971,38.8334574 74.8369319,38.7558161 C74.6228468,38.6785349 74.3866811,38.7891767 74.3096393,39.0026601 L72.4301542,44.1962232 C72.3528723,44.4097066 72.463515,44.6458704 72.6770001,44.7235116 C72.8903652,44.8006729 73.1265309,44.6900311 73.2042928,44.4760677" id="Fill-60" fill="#313131"></path>
                    <path d="M38.048129,130.562325 C11.9820634,143.020924 2.34271208,171.563381 6.77357842,194.414147 C8.99507174,205.87433 14.75461,215.90049 23.7329854,221.773384 C32.7116009,227.647478 44.9181739,229.383906 60.0588173,224.210623 C79.089114,217.707719 91.9470626,199.828633 103.746586,183.547973 C103.885789,183.35597 103.842588,183.087165 103.650583,182.947963 C103.458579,182.808761 103.189772,182.851962 103.050569,183.043965 C91.3534083,199.183023 78.6463034,216.950507 59.7810106,223.39821 C44.9530947,228.464691 32.9966078,226.806265 24.2036367,221.054573 C15.4115057,215.302881 9.79297089,205.473524 7.61707867,194.250944 C3.25209391,171.738584 12.7382016,143.612534 38.4184579,131.337537 C38.632423,131.235536 38.7235052,130.978732 38.6211428,130.765128 C38.5187803,130.550325 38.2620941,130.460323 38.048129,130.562325" id="Fill-61" fill="#313131"></path>
                    <path d="M110.18834,87.9008025 C138.188612,82.3925943 169.024552,64.7989928 183.258094,39.6543905 C186.285767,34.3038649 189.563045,26.5029001 190.290263,19.0265405 C190.781075,13.9826198 190.111459,9.08678143 187.465395,5.1663187 C185.686952,2.52915651 182.940086,1.07089318 179.865613,0.420722773 C175.340304,-0.536052536 170.105778,0.266400304 166.323288,1.55126086 C154.539005,5.55452491 141.863101,16.937667 138.93983,29.6621906 C138.888229,29.8833542 139.027433,30.1046377 139.248238,30.1555185 C139.470243,30.2063993 139.691048,30.0680371 139.74145,29.8463936 C142.605918,17.3815541 155.045417,6.25209607 166.588494,2.33055333 C170.249782,1.08685343 175.315103,0.299760837 179.695209,1.22569565 C182.557277,1.83110534 185.126539,3.17104678 186.783779,5.62664607 C189.32544,9.39290633 189.943454,14.1014217 189.470643,18.9468592 C188.754226,26.3059769 185.522548,33.9824998 182.541677,39.248544 C168.419738,64.1965832 137.810603,81.6286621 110.029937,87.0934295 C109.806731,87.1371102 109.661528,87.3535937 109.705929,87.5763173 C109.74913,87.7996408 109.965135,87.9447232 110.18834,87.9008025" id="Fill-62" fill="#313131"></path>
                    <path d="M221.805419,102.630678 C233.882509,95.5373646 249.006472,104.955115 249.930494,118.38933 C250.830516,131.49234 242.365513,141.354098 233.066489,149.348626 C221.899021,158.947579 206.207445,162.198431 192.545117,166.4861 C166.703697,174.59703 134.892133,187.841642 121.270606,213.194447 C117.972927,219.332545 118.757746,226.375458 122.67344,231.935147 C126.305927,237.09163 132.638479,240.973692 140.899477,241.631302 C153.164972,242.608118 169.733769,236.464019 187.962207,216.680503 C188.115811,216.5137 188.10501,216.252096 187.938206,216.098494 C187.771402,215.944891 187.510996,215.955691 187.357392,216.122494 C169.373761,235.640806 153.065369,241.775304 140.965479,240.810489 C132.982887,240.175679 126.85674,236.443619 123.346656,231.461139 C119.610967,226.158255 118.848948,219.439347 121.995424,213.583253 C135.518548,188.414051 167.136907,175.323041 192.791123,167.272112 C206.556653,162.950843 222.352632,159.64359 233.602902,149.972636 C243.09633,141.811305 251.670536,131.708343 250.751314,118.332929 C249.787691,104.315505 233.990512,94.5209484 221.389009,101.920267 C221.193404,102.035469 221.127403,102.287473 221.242606,102.484276 C221.357808,102.679879 221.609814,102.74468 221.805419,102.630678" id="Fill-63" fill="#313131"></path>
                    <path d="M34.7858507,175.630246 C34.7878908,175.065037 34.6407672,174.486628 34.4540428,173.937019 C34.2035967,173.200207 33.8774289,172.512596 33.6809842,171.961787 C33.5379408,171.562181 33.464379,171.218976 33.4875396,170.960971 C33.5122602,170.687367 33.6265029,170.478564 33.8321878,170.333361 C33.9921517,170.22056 34.2277173,170.141358 34.5678055,170.14484 C34.9334543,170.148558 35.4617069,170.24816 36.1978046,170.474964 C36.8886612,170.687367 37.5269565,170.89617 38.171012,171.224976 C38.3735768,171.328177 38.4538587,171.575381 38.3510163,171.778184 C38.2475738,171.980988 37.9996478,172.061389 37.797563,171.958187 C37.1967086,171.652182 36.6000543,171.460179 35.9555188,171.260976 C35.421626,171.096574 35.0142162,171.004172 34.7086889,170.976572 C34.5352847,170.959771 34.3476002,170.996972 34.3131594,171.004172 C34.3111193,171.013772 34.3075192,171.031773 34.3064392,171.043773 C34.3043992,171.084573 34.3079992,171.127774 34.3147194,171.175775 C34.3357199,171.323377 34.3876812,171.49498 34.4560828,171.685783 C34.8676927,172.837801 35.7919549,174.573029 35.5739096,176.140254 C35.549669,176.314257 35.4720272,176.423459 35.3856251,176.49546 C35.2627422,176.598662 35.0868179,176.651462 34.8639726,176.590261 C34.7374896,176.555461 34.5734456,176.46906 34.4031615,176.363458 C34.2370775,176.259056 34.0616333,176.130654 33.9293902,176.087453 C33.4479386,175.930251 32.6548396,175.608646 31.920782,175.477844 C31.6589357,175.429843 31.4053696,175.401042 31.1878044,175.428643 C31.2901668,175.695047 31.4352503,176.070653 31.4490506,176.101854 C31.7027367,176.667063 32.7617621,177.954683 33.3126954,178.953099 C33.6130626,179.497908 33.7509459,179.987516 33.6841043,180.293521 C33.6429433,180.480724 33.5539011,180.598326 33.4515387,180.676327 C33.3080152,180.786729 33.1110905,180.832329 32.8697647,180.771128 C32.6557996,180.718328 32.3693527,180.555125 32.0827858,180.383522 C31.8749409,180.25992 31.6681759,180.127918 31.5000519,180.087117 C31.1281629,179.999516 30.715113,179.922715 30.3329038,179.897514 C29.8530123,179.863914 29.5016439,179.881914 29.254798,179.951515 C29.1287949,179.987516 29.0397528,180.022316 29.006872,180.100318 C28.9533507,180.22632 29.0104721,180.384722 29.0824738,180.570725 C29.2521579,181.009932 29.5942861,181.530741 29.9425345,182.076749 C30.2438617,182.549557 30.5711096,183.005564 30.8904372,183.466372 C31.0195603,183.652374 30.9732392,183.909179 30.7866347,184.038781 C30.5999103,184.168383 30.3432241,184.121582 30.214101,183.935579 C29.8885332,183.465171 29.5556452,183.000764 29.2485578,182.519556 C28.8679087,181.921947 28.5006999,181.348338 28.3150554,180.86833 C28.1499315,180.441123 28.1267709,180.067917 28.2486938,179.778713 C28.3443361,179.554309 28.5223004,179.361106 28.8268677,179.231504 C29.1461954,179.094702 29.6472074,179.0251 30.3889452,179.076701 C30.8143554,179.105502 31.2746864,179.189503 31.6888164,179.286705 C32.0031039,179.361106 32.4372744,179.64911 32.8044832,179.851914 L32.8317238,179.866314 L32.8260837,179.849514 C32.7320014,179.583109 32.5513971,179.262704 32.338392,178.924299 C31.7484578,177.988284 30.921878,176.938267 30.6980726,176.439059 C30.670832,176.377858 30.2871827,175.457443 30.2665423,175.24264 C30.2408616,174.979836 30.3941053,174.855034 30.4820674,174.804633 C30.8858771,174.579029 31.4582909,174.558629 32.0663454,174.667831 C32.839404,174.805833 33.6769041,175.139438 34.1835563,175.303841 C34.33944,175.355442 34.5435649,175.477844 34.7421697,175.603846 L34.7858507,175.630246" id="Fill-64" fill="#313131"></path>
                    <path d="M100.514908,24.4827878 L106.296647,30.2648403 L109.187516,21.5923015 L100.514908,24.4827878 Z M110.227941,21.0714932 C110.277143,20.9237708 110.238742,20.7608082 110.128339,20.6506465 C110.019136,20.5404847 109.855932,20.5019641 109.707129,20.5510449 L99.6220868,23.9125386 C99.4876836,23.9575394 99.3844811,24.0699812 99.3520803,24.2084634 C99.3196795,24.3475456 99.3604805,24.4933479 99.4612829,24.5940295 L106.185044,31.3173771 C106.285847,31.4184187 106.43225,31.4599394 106.570254,31.4271789 C106.709457,31.3944184 106.82106,31.2919367 106.866661,31.1565745 L110.227941,21.0714932 L110.227941,21.0714932 Z" id="Fill-65" fill="#313131"></path>
                    <polyline id="Fill-66" fill="#313131" points="97.8136434 215.680887 108.983511 217.798921 99.9304942 226.851866 97.8136434 215.680887"></polyline>
                    <polyline id="Fill-67" fill="#0591E2" points="22.67396 122.334993 15.255742 130.949931 11.9422225 118.583733 22.67396 122.334993"></polyline>
                    <path d="M204.161396,198.698215 L204.161396,202.330673 C204.161396,202.558677 204.3462,202.74228 204.573006,202.74228 C204.801011,202.74228 204.984615,202.558677 204.984615,202.330673 L204.984615,198.698215 C204.984615,198.471412 204.801011,198.286609 204.573006,198.286609 C204.3462,198.286609 204.161396,198.471412 204.161396,198.698215" id="Fill-68" fill="#313131"></path>
                    <path d="M210.370345,204.083901 L206.737858,204.083901 C206.511052,204.083901 206.326248,204.268704 206.326248,204.495508 C206.326248,204.722312 206.511052,204.907115 206.737858,204.907115 L210.370345,204.907115 C210.59715,204.907115 210.781955,204.722312 210.781955,204.495508 C210.781955,204.268704 210.59715,204.083901 210.370345,204.083901" id="Fill-69" fill="#313131"></path>
                    <path d="M204.161396,206.659143 L204.161396,210.291601 C204.161396,210.519604 204.3462,210.703207 204.573006,210.703207 C204.801011,210.703207 204.984615,210.519604 204.984615,210.291601 L204.984615,206.659143 C204.984615,206.432339 204.801011,206.247536 204.573006,206.247536 C204.3462,206.247536 204.161396,206.432339 204.161396,206.659143" id="Fill-70" fill="#313131"></path>
                    <path d="M202.409354,204.083901 L198.776867,204.083901 C198.548861,204.083901 198.365257,204.268704 198.365257,204.495508 C198.365257,204.722312 198.548861,204.907115 198.776867,204.907115 L202.409354,204.907115 C202.636159,204.907115 202.820964,204.722312 202.820964,204.495508 C202.820964,204.268704 202.636159,204.083901 202.409354,204.083901" id="Fill-71" fill="#313131"></path>
                    <path d="M122.044625,124.654631 L122.044625,128.287089 C122.044625,128.515092 122.229429,128.698695 122.456235,128.698695 C122.68304,128.698695 122.867845,128.515092 122.867845,128.287089 L122.867845,124.654631 C122.867845,124.427827 122.68304,124.243024 122.456235,124.243024 C122.229429,124.243024 122.044625,124.427827 122.044625,124.654631" id="Fill-72" fill="#313131"></path>
                    <path d="M128.253574,130.040317 L124.621087,130.040317 C124.393081,130.040317 124.209477,130.22392 124.209477,130.451923 C124.209477,130.678727 124.393081,130.86233 124.621087,130.86233 L128.253574,130.86233 C128.480379,130.86233 128.665184,130.678727 128.665184,130.451923 C128.665184,130.22392 128.480379,130.040317 128.253574,130.040317" id="Fill-73" fill="#313131"></path>
                    <path d="M122.044625,132.615558 L122.044625,136.248016 C122.044625,136.47602 122.229429,136.659623 122.456235,136.659623 C122.68304,136.659623 122.867845,136.47602 122.867845,136.248016 L122.867845,132.615558 C122.867845,132.388754 122.68304,132.203951 122.456235,132.203951 C122.229429,132.203951 122.044625,132.388754 122.044625,132.615558" id="Fill-74" fill="#313131"></path>
                    <path d="M120.291383,130.040317 L116.658896,130.040317 C116.43209,130.040317 116.247286,130.22392 116.247286,130.451923 C116.247286,130.678727 116.43209,130.86233 116.658896,130.86233 L120.291383,130.86233 C120.519388,130.86233 120.702993,130.678727 120.702993,130.451923 C120.702993,130.22392 120.519388,130.040317 120.291383,130.040317" id="Fill-75" fill="#313131"></path>
                    <path d="M14.8322518,87.5088762 L14.8322518,91.1416943 C14.8322518,91.3684979 15.0166963,91.5533009 15.2437417,91.5533009 C15.4711472,91.5533009 15.6552316,91.3684979 15.6552316,91.1416943 L15.6552316,87.5088762 C15.6552316,87.2818326 15.4711472,87.0973896 15.2437417,87.0973896 C15.0166963,87.0973896 14.8322518,87.2818326 14.8322518,87.5088762" id="Fill-76" fill="#313131"></path>
                    <path d="M21.0408408,92.8949224 L17.4082337,92.8949224 C17.1809482,92.8949224 16.9967438,93.0785253 16.9967438,93.3065289 C16.9967438,93.5333326 17.1809482,93.7181355 17.4082337,93.7181355 L21.0408408,93.7181355 C21.2678863,93.7181355 21.4523307,93.5333326 21.4523307,93.3065289 C21.4523307,93.0785253 21.2678863,92.8949224 21.0408408,92.8949224" id="Fill-77" fill="#313131"></path>
                    <path d="M14.8322518,95.4701636 L14.8322518,99.1026217 C14.8322518,99.3306253 15.0166963,99.5142283 15.2437417,99.5142283 C15.4711472,99.5142283 15.6552316,99.3306253 15.6552316,99.1026217 L15.6552316,95.4701636 C15.6552316,95.2433599 15.4711472,95.058557 15.2437417,95.058557 C15.0166963,95.058557 14.8322518,95.2433599 14.8322518,95.4701636" id="Fill-78" fill="#313131"></path>
                    <path d="M13.0798498,92.8949224 L9.44724259,92.8949224 C9.21995713,92.8949224 9.03575271,93.0785253 9.03575271,93.3065289 C9.03575271,93.5333326 9.21995713,93.7181355 9.44724259,93.7181355 L13.0798498,93.7181355 C13.3067752,93.7181355 13.4912196,93.5333326 13.4912196,93.3065289 C13.4912196,93.0785253 13.3067752,92.8949224 13.0798498,92.8949224" id="Fill-79" fill="#313131"></path>
                    <path d="M137.114587,45.8794901 L133.473699,48.7825766 L137.114587,45.8794901 Z M139.363441,55.7297277 L134.823732,54.6937511 L139.363441,55.7297277 Z M133.063289,63.6294541 L131.043641,59.434187 L133.063289,63.6294541 Z M122.959047,63.6294541 L124.979895,59.434187 L122.959047,63.6294541 Z M116.660096,55.7297277 L121.198605,54.6937511 L116.660096,55.7297277 Z M118.90775,45.8794901 L122.548637,48.7825766 L118.90775,45.8794901 Z M128.011168,41.49546 L128.011168,46.1516545 L128.011168,41.49546 L128.011168,41.49546 Z" id="Fill-80" fill="#313131"></path>
                    <path d="M127.599558,41.49546 L127.599558,46.1515345 C127.599558,46.3789381 127.784363,46.563021 128.011168,46.563021 C128.237974,46.563021 128.422778,46.3789381 128.422778,46.1515345 L128.422778,41.49546 C128.422778,41.2680563 128.237974,41.0839734 128.011168,41.0839734 C127.784363,41.0839734 127.599558,41.2680563 127.599558,41.49546 Z M136.85778,45.557405 L133.216893,48.4606114 C133.039289,48.6025737 133.010488,48.8612978 133.152092,49.0392607 C133.293695,49.2166235 133.552901,49.246024 133.730505,49.1040617 L137.371393,46.2009753 C137.548997,46.059493 137.577798,45.8002888 137.436194,45.622806 C137.294591,45.4453232 137.035385,45.4159227 136.85778,45.557405 Z M118.650943,46.2009753 L122.291831,49.1040617 C122.469435,49.246024 122.728641,49.2166235 122.870245,49.0392607 C123.011848,48.8612978 122.981847,48.6025737 122.804243,48.4606114 L119.163356,45.557405 C118.986952,45.4159227 118.727745,45.4453232 118.586142,45.622806 C118.444539,45.8002888 118.473339,46.059493 118.650943,46.2009753 Z M116.751298,56.1308941 L121.291007,55.0949176 C121.511812,55.0445168 121.651015,54.8238332 121.600614,54.6021897 C121.550213,54.3809061 121.329408,54.2420639 121.107402,54.2924647 L116.567693,55.3284413 C116.345688,55.3793221 116.207685,55.6000056 116.258086,55.8211692 C116.308487,56.0429327 116.529293,56.1817749 116.751298,56.1308941 Z M139.454643,55.3284413 L134.914934,54.2924647 C134.694129,54.2420639 134.472123,54.3809061 134.421722,54.6021897 C134.371321,54.8238332 134.510524,55.0445168 134.731329,55.0949176 L139.271038,56.1308941 C139.493044,56.1817749 139.713849,56.0429327 139.76425,55.8211692 C139.814651,55.6000056 139.675448,55.3793221 139.454643,55.3284413 Z M123.329856,63.807897 L125.349504,59.6126298 C125.449107,59.4079066 125.362705,59.1620226 125.1587,59.0632611 C124.953495,58.9652195 124.707489,59.0509009 124.609086,59.2557441 L122.588238,63.4508913 C122.489836,63.6556145 122.576238,63.9014985 122.780243,64.00026 C122.985448,64.0984216 123.231453,64.0126202 123.329856,63.807897 Z M133.434098,63.4508913 L131.41325,59.2557441 C131.314847,59.0509009 131.068842,58.9652195 130.863637,59.0632611 C130.659632,59.1620226 130.57323,59.4079066 130.671632,59.6126298 L132.69248,63.807897 C132.790883,64.0126202 133.036889,64.0984216 133.240894,64.00026 C133.446099,63.9014985 133.532501,63.6556145 133.434098,63.4508913 L133.434098,63.4508913 Z" id="Fill-81" fill="#313131"></path>
                    <path d="M180.60363,48.6034137 C182.928086,46.0886535 184.526524,43.1489664 186.314567,40.2629202 C186.43337,40.0699572 186.373369,39.8163931 186.180164,39.6965112 C185.98816,39.5772293 185.733753,39.6368702 185.614951,39.8297133 C183.854508,42.6706388 182.287271,45.5691651 179.998816,48.0448048 C179.845212,48.2114874 179.856012,48.4722516 180.021616,48.6259741 C180.18842,48.7804165 180.450027,48.7700964 180.60363,48.6034137" id="Fill-82" fill="#313131"></path>
                    <path d="M187.890205,37.1709508 C188.161412,36.6699428 188.389417,36.1551345 188.645023,35.6478864 C188.745826,35.4448432 188.664224,35.1973992 188.461419,35.0955176 C188.258614,34.9936359 188.011408,35.0754772 187.909406,35.2781605 C187.6586,35.7780885 187.434194,36.2858166 187.166588,36.7784245 C187.058585,36.9781077 187.132987,37.2280717 187.332192,37.3365534 C187.531397,37.4446752 187.782203,37.370514 187.890205,37.1709508" id="Fill-83" fill="#313131"></path>
                    <path d="M8.43249824,154.0107 C4.31135933,159.931595 1.6808962,168.181727 1.06120132,175.602646 C1.03312065,175.937451 1.28248664,176.231456 1.61705467,176.259056 C1.9518627,176.286657 2.24622977,176.038253 2.27431044,175.703447 C2.87720491,168.487732 5.42390603,160.462003 9.43176222,154.705511 C9.62340682,154.429507 9.55524518,154.050301 9.27935856,153.858298 C9.00431196,153.666295 8.62414284,153.734696 8.43249824,154.0107" id="Fill-84" fill="#313131"></path>
                    <path d="M0.23558151,180.996732 C0.142339272,181.703543 0.00589599732,182.421155 1.58561921e-05,183.136366 C-0.00238420141,183.472372 0.267982287,183.747176 0.603630343,183.749592 C0.939878413,183.751976 1.21408499,183.481972 1.21732507,183.145966 C1.22212519,182.479956 1.35544839,181.812745 1.44197046,181.155135 C1.48565151,180.822729 1.25104588,180.516724 0.917797883,180.473524 C0.585269902,180.429123 0.279262558,180.664327 0.23558151,180.996732" id="Fill-85" fill="#313131"></path>
                </g>
            </g>
        </g>
    </g>
</svg>